<?xml version="1.0" standalone="no"?>
<!DOCTYPE svg PUBLIC "-//W3C//DTD SVG 20010904//EN"
 "http://www.w3.org/TR/2001/REC-SVG-20010904/DTD/svg10.dtd">
<svg version="1.0" xmlns="http://www.w3.org/2000/svg"
 width="738.000000pt" height="738.000000pt" viewBox="0 0 738.000000 738.000000"
 preserveAspectRatio="xMidYMid meet">
<metadata>
Created by potrace 1.14, written by Peter Selinger 2001-2017
</metadata>
<g transform="translate(0.000000,738.000000) scale(0.100000,-0.100000)"
fill="#000000" stroke="none">
<path d="M4385 7364 c-91 -33 -285 -136 -293 -156 -2 -4 -8 -8 -14 -8 -35 0
-313 -247 -428 -380 -12 -14 -31 -36 -43 -50 -30 -34 -144 -184 -183 -240
-198 -289 -368 -627 -502 -1000 -35 -98 -108 -359 -117 -422 -4 -23 -8 -45
-10 -48 -1 -3 -6 -27 -9 -55 -4 -27 -13 -86 -21 -130 -23 -135 -30 -241 -30
-470 0 -232 10 -414 30 -562 l6 -43 -58 -26 c-93 -41 -276 -113 -428 -166
-153 -53 -180 -69 -148 -87 16 -8 51 -2 159 29 77 21 153 44 169 50 17 7 37
13 45 15 8 2 72 23 142 48 l128 45 8 -37 c52 -223 105 -416 132 -476 5 -11 14
-38 21 -60 7 -22 36 -98 65 -169 30 -71 53 -130 51 -131 -10 -8 -208 -82 -317
-120 -74 -26 -145 -52 -157 -58 -26 -12 -30 -32 -8 -40 21 -9 169 31 393 105
68 22 124 38 126 37 1 -2 37 -74 80 -159 159 -314 335 -571 460 -673 86 -71
107 -40 41 63 -79 122 -174 348 -250 595 -35 114 -74 253 -75 266 0 6 34 21
194 89 54 22 99 40 101 38 16 -20 80 -340 91 -452 3 -34 7 -68 9 -76 2 -8 7
-62 11 -120 3 -58 7 -127 10 -155 5 -68 5 -628 -1 -690 -2 -27 -6 -99 -10
-160 -5 -104 -9 -145 -20 -240 -3 -22 -8 -65 -11 -95 -3 -30 -7 -62 -9 -70 -5
-18 -35 -182 -41 -225 -2 -16 -6 -43 -10 -58 -3 -16 -7 -38 -8 -50 -2 -12 -6
-35 -9 -52 -3 -16 -9 -48 -12 -70 -3 -22 -10 -67 -15 -100 -5 -33 -12 -78 -15
-100 -4 -22 -8 -47 -10 -55 -4 -15 -16 -131 -19 -180 -2 -42 34 -37 64 7 181
278 345 622 459 963 48 142 132 448 146 531 3 19 8 41 10 49 2 8 6 29 9 45 3
17 12 71 20 120 19 112 23 144 31 220 4 33 8 71 11 85 25 152 25 677 -1 832
-4 23 -23 152 -32 218 -2 19 -12 69 -22 110 l-17 75 148 90 c277 169 518 348
678 506 66 65 94 101 122 159 59 122 66 191 29 271 -48 102 -176 209 -319 268
-105 44 -284 83 -380 84 -8 0 27 38 76 84 139 128 207 251 207 373 0 76 -23
122 -102 203 -86 88 -195 150 -340 192 -94 28 -266 56 -281 46 -29 -19 -16
-38 57 -80 99 -58 209 -167 246 -246 24 -50 28 -73 28 -135 -1 -163 -107 -303
-367 -484 -70 -48 -129 -86 -131 -84 -13 13 -31 221 -29 336 2 122 15 338 28
466 4 33 9 81 11 105 5 53 14 117 20 151 3 14 7 41 9 61 16 128 81 418 133
589 106 351 257 671 404 856 48 61 58 94 27 94 -62 -1 -264 -187 -385 -355
-262 -367 -535 -951 -688 -1476 -38 -131 -81 -326 -90 -409 -3 -30 -8 -73 -10
-95 -11 -95 -4 -436 10 -545 3 -19 7 -64 10 -100 l6 -65 -118 -72 c-113 -69
-118 -71 -126 -51 -8 22 -2 554 6 593 3 11 8 56 11 100 4 44 9 87 11 95 2 8 6
42 10 75 10 96 73 386 115 529 61 209 142 431 216 594 13 29 24 55 24 58 0 7
133 271 176 350 250 457 565 839 758 919 49 21 48 45 -1 44 -21 0 -56 -7 -78
-15z m-206 -190 c-35 -37 -72 -75 -82 -85 -36 -39 -202 -267 -265 -364 -164
-253 -344 -607 -443 -870 -17 -44 -35 -89 -40 -100 -5 -11 -32 -89 -59 -174
-86 -262 -146 -531 -175 -781 -4 -30 -9 -66 -11 -80 -12 -77 -19 -266 -19
-496 l0 -261 -55 -30 c-121 -67 -210 -111 -211 -105 0 4 -2 16 -4 27 -19 116
-30 308 -30 540 0 226 8 348 29 478 8 45 17 100 20 122 35 264 178 680 355
1035 275 549 636 975 1005 1187 23 12 43 23 45 23 3 0 -24 -30 -60 -66z m202
-162 c-69 -103 -243 -452 -224 -452 3 0 1 -6 -5 -13 -15 -18 -107 -298 -141
-430 -29 -111 -64 -270 -75 -337 -3 -19 -8 -48 -12 -65 -7 -34 -7 -36 -23
-155 -18 -131 -30 -241 -36 -325 -1 -22 -6 -92 -11 -155 -11 -166 -9 -350 7
-470 7 -58 14 -108 14 -112 0 -8 -430 -308 -442 -308 -4 0 -8 10 -9 23 -1 20
-9 107 -20 217 -11 108 -4 437 11 520 2 14 7 45 10 70 11 84 63 284 115 445
177 545 460 1116 703 1420 39 48 168 185 175 185 1 0 -15 -26 -37 -58z m-6
-1549 c134 -42 226 -95 305 -177 102 -106 113 -180 45 -317 -46 -91 -160 -207
-344 -349 -178 -138 -416 -296 -425 -282 -2 4 -7 28 -11 52 -3 25 -8 52 -11
61 -3 13 33 43 138 115 232 160 353 299 391 445 15 55 16 135 2 180 -28 94
-102 194 -199 272 l-50 39 40 -7 c21 -4 75 -19 119 -32z m184 -868 c111 -56
224 -163 268 -254 34 -69 43 -173 20 -239 -33 -95 -117 -204 -228 -294 -45
-37 -422 -298 -425 -295 -15 15 -229 756 -220 764 1 2 56 37 122 79 125 80
369 259 394 290 14 16 15 16 18 -5 2 -14 20 -30 51 -46z m250 -31 c179 -58
324 -162 377 -273 44 -91 -9 -247 -125 -361 -162 -161 -433 -362 -720 -534
-52 -31 -95 -55 -97 -54 -1 2 -9 29 -17 60 l-15 58 46 33 c26 19 106 74 177
123 72 48 135 93 142 99 6 5 36 28 65 50 85 64 183 177 224 260 95 193 33 385
-176 548 l-35 27 40 -6 c22 -4 73 -18 114 -30z m-902 -258 c-5 -12 -161 -106
-177 -106 -5 0 -10 -3 -12 -7 -5 -13 -267 -143 -270 -135 -2 4 -5 21 -7 38 -2
33 17 48 414 320 l30 20 13 -58 c8 -32 12 -65 9 -72z m90 -316 c43 -153 87
-300 134 -444 10 -32 16 -62 13 -67 -5 -9 -229 -164 -390 -270 l-102 -67 -21
76 c-71 264 -171 713 -171 767 0 7 73 51 163 98 89 46 194 103 232 125 l70 41
13 -47 c7 -26 33 -121 59 -212z m-600 46 c-5 -13 -49 -36 -184 -97 -48 -21
-63 -25 -67 -14 -3 9 28 34 92 74 54 32 109 68 122 79 l25 20 8 -24 c5 -14 7
-31 4 -38z m34 -172 c24 -125 23 -122 39 -189 13 -55 18 -80 24 -111 6 -32
104 -418 111 -434 6 -16 1 -19 -173 -115 -57 -31 -107 -53 -110 -50 -4 4 -12
28 -18 53 -60 257 -84 361 -88 382 -2 14 -11 59 -19 100 -9 41 -19 98 -22 125
-4 28 -8 57 -10 65 -2 8 -7 49 -10 91 l-6 75 121 54 c67 30 124 58 127 63 9
14 12 4 34 -109z m-334 42 c0 -9 -30 -28 -69 -45 -90 -41 -98 -39 -19 4 36 19
69 39 75 45 13 13 13 13 13 -4z m4 -88 c0 -7 2 -22 3 -33 2 -11 6 -51 10 -89
9 -75 14 -113 21 -136 3 -8 7 -33 11 -55 3 -22 12 -67 19 -100 8 -33 16 -71
19 -85 12 -67 69 -306 77 -327 20 -52 13 -62 -67 -99 -41 -19 -79 -34 -83 -34
-10 0 -117 266 -165 410 -31 94 -88 301 -100 362 -2 13 -7 39 -11 58 l-6 36
128 51 c143 58 143 58 144 41z m1096 -504 c-14 -15 -348 -184 -474 -240 l-53
-24 0 23 c0 19 20 37 98 86 53 34 165 109 247 166 l150 103 18 -55 c9 -31 16
-57 14 -59z m36 -169 c52 -289 61 -384 62 -655 0 -195 -8 -383 -19 -435 -2
-11 -7 -51 -10 -90 -4 -38 -9 -79 -12 -90 -2 -11 -6 -37 -9 -57 -11 -86 -17
-118 -41 -237 -14 -70 -36 -166 -49 -216 -13 -49 -31 -117 -40 -150 -36 -134
-142 -431 -201 -563 -52 -114 -154 -318 -207 -410 -66 -115 -77 -116 -58 -9 6
34 13 80 16 102 9 61 69 419 79 470 3 17 19 118 31 191 2 11 6 52 10 90 3 38
8 83 10 100 3 17 7 77 10 135 3 57 8 131 11 164 6 75 6 619 0 700 -3 33 -8 99
-11 146 -3 47 -8 97 -10 110 -2 13 -7 51 -10 84 -10 101 -44 285 -70 384 -14
52 -24 95 -23 95 2 1 55 26 118 55 63 29 178 85 255 126 92 48 142 69 146 61
3 -6 13 -51 22 -101z m-606 -102 c2 -6 -11 -18 -29 -26 -100 -46 -180 -78
-184 -74 -2 2 23 18 57 36 33 17 77 42 97 56 38 25 53 27 59 8z m-277 -373
c22 -74 42 -144 45 -155 10 -42 90 -256 131 -350 42 -97 43 -99 14 -65 -54 64
-173 247 -250 385 -35 63 -138 269 -142 283 -2 9 24 24 72 41 66 25 76 26 82
12 4 -9 25 -77 48 -151z"/>
</g>
</svg>
