<svg width="115" height="114" viewBox="0 0 115 114" fill="none" xmlns="http://www.w3.org/2000/svg">
<mask id="path-1-outside-1_2641_1043" maskUnits="userSpaceOnUse" x="0.000976562" y="91.5417" width="115" height="22" fill="black">
<rect fill="white" x="0.000976562" y="91.5417" width="115" height="22"/>
<path d="M1.00098 92.8808V112.661H3.57237V102.827H12.3321V101.527H3.57237V94.435H13.7732V92.8808H1.00098Z"/>
<path d="M16.1627 92.8808V105.031C16.1627 105.804 16.238 106.661 16.3887 107.603C16.5394 108.526 16.8973 109.392 17.4625 110.202C18.0276 110.994 18.8659 111.662 19.9774 112.209C21.0888 112.736 22.6053 113 24.5268 113C25.7324 113 26.7967 112.811 27.7198 112.435C28.6617 112.058 29.4435 111.54 30.0651 110.881C30.7056 110.221 31.186 109.458 31.5062 108.592C31.8265 107.706 31.9866 106.764 31.9866 105.766V92.8808H30.7433V104.834C30.7433 105.248 30.7339 105.672 30.715 106.105C30.6962 106.52 30.6397 106.943 30.5455 107.377C30.4513 107.791 30.3006 108.206 30.0934 108.62C29.905 109.034 29.6224 109.449 29.2457 109.863C28.5675 110.598 27.8046 111.097 26.9569 111.361C26.1091 111.625 25.2238 111.757 24.3007 111.757C23.5095 111.757 22.8031 111.634 22.1814 111.389C21.5786 111.144 21.004 110.777 20.4577 110.287C20.0245 109.91 19.6948 109.534 19.4687 109.157C19.2427 108.78 19.0731 108.413 18.9601 108.055C18.8471 107.678 18.7811 107.301 18.7623 106.925C18.7435 106.548 18.7341 106.171 18.7341 105.794V92.8808H16.1627Z"/>
<path d="M44.2425 112.661V94.435H51.8153V92.8808H34.0982V94.435H41.6711V112.661H44.2425Z"/>
<path d="M53.9344 92.8808V105.031C53.9344 105.804 54.0098 106.661 54.1605 107.603C54.3112 108.526 54.6691 109.392 55.2342 110.202C55.7994 110.994 56.6377 111.662 57.7491 112.209C58.8606 112.736 60.377 113 62.2985 113C63.5041 113 64.5685 112.811 65.4915 112.435C66.4334 112.058 67.2152 111.54 67.8369 110.881C68.4774 110.221 68.9577 109.458 69.278 108.592C69.5982 107.706 69.7584 106.764 69.7584 105.766V92.8808H68.5151V104.834C68.5151 105.248 68.5056 105.672 68.4868 106.105C68.468 106.52 68.4114 106.943 68.3173 107.377C68.2231 107.791 68.0724 108.206 67.8651 108.62C67.6768 109.034 67.3942 109.449 67.0174 109.863C66.3393 110.598 65.5763 111.097 64.7286 111.361C63.8809 111.625 62.9955 111.757 62.0724 111.757C61.2812 111.757 60.5748 111.634 59.9532 111.389C59.3503 111.144 58.7758 110.777 58.2295 110.287C57.7962 109.91 57.4665 109.534 57.2405 109.157C57.0144 108.78 56.8449 108.413 56.7319 108.055C56.6188 107.678 56.5529 107.301 56.5341 106.925C56.5152 106.548 56.5058 106.171 56.5058 105.794V92.8808H53.9344Z"/>
<path d="M73.1978 92.8808V112.661H75.7692V103.929H77.0125C77.54 103.929 77.9732 103.976 78.3123 104.071C78.6702 104.165 78.9905 104.325 79.2731 104.551C79.5556 104.777 79.8194 105.069 80.0643 105.427C80.3092 105.785 80.6011 106.228 80.9402 106.755L83.1725 110.061C83.4551 110.494 83.7282 110.89 83.992 111.248C84.2746 111.606 84.576 111.917 84.8962 112.18C85.2165 112.425 85.5744 112.623 85.97 112.774C86.3844 112.925 86.8742 113 87.4393 113C87.8538 113 88.1929 112.981 88.4566 112.943C88.7203 112.906 88.9841 112.811 89.2478 112.661V111.615C89.1536 111.634 89.0594 111.653 88.9652 111.672C88.871 111.672 88.7768 111.672 88.6827 111.672C88.2871 111.672 87.9386 111.615 87.6371 111.502C87.3357 111.389 87.0532 111.229 86.7894 111.022C86.5257 110.796 86.2714 110.532 86.0265 110.231C85.7816 109.91 85.5273 109.552 85.2636 109.157C84.4724 108.008 83.8601 107.094 83.4268 106.416C82.9936 105.719 82.6451 105.182 82.3813 104.805C82.1364 104.429 81.9292 104.155 81.7597 103.986C81.609 103.816 81.4206 103.675 81.1945 103.562L80.912 103.421V103.308C81.8162 103.251 82.5885 103.053 83.229 102.714C83.8884 102.375 84.4253 101.951 84.8397 101.443C85.2541 100.934 85.5555 100.388 85.7439 99.8038C85.9323 99.201 86.0265 98.617 86.0265 98.0519C86.0265 97.5432 85.9229 96.9875 85.7157 96.3847C85.5273 95.7819 85.1882 95.2262 84.6984 94.7175C84.2275 94.1901 83.5776 93.7568 82.7487 93.4177C81.9198 93.0598 80.8743 92.8808 79.6121 92.8808H73.1978ZM75.7692 94.1241H78.6231C79.339 94.1241 79.9795 94.2278 80.5446 94.435C81.1286 94.6422 81.6278 94.9342 82.0423 95.3109C82.4567 95.6689 82.7675 96.1021 82.9747 96.6108C83.2008 97.1194 83.3138 97.6751 83.3138 98.2779C83.3138 98.7866 83.2102 99.3046 83.003 99.8321C82.8146 100.341 82.5226 100.812 82.127 101.245C81.7314 101.659 81.2416 101.998 80.6576 102.262C80.0925 102.526 79.4332 102.658 78.6797 102.658H75.7692V94.1241Z"/>
<path d="M92.5759 92.8808V112.661H95.1473V102.771V92.8808H92.5759Z"/>
<path d="M99.3049 107.659C99.3425 108.469 99.5498 109.204 99.9265 109.863C100.322 110.523 100.85 111.088 101.509 111.559C102.187 112.011 102.978 112.369 103.883 112.633C104.787 112.877 105.776 113 106.85 113C107.942 113 108.922 112.868 109.788 112.604C110.674 112.341 111.427 111.964 112.049 111.474C112.67 110.984 113.151 110.391 113.49 109.694C113.829 108.997 113.999 108.224 113.999 107.377C113.999 106.209 113.707 105.257 113.123 104.523C112.539 103.769 111.804 103.148 110.919 102.658C110.052 102.149 109.101 101.725 108.065 101.386C107.047 101.047 106.096 100.689 105.211 100.312C104.344 99.9357 103.619 99.5024 103.035 99.0126C102.451 98.5228 102.159 97.8729 102.159 97.0629C102.159 96.6108 102.253 96.1869 102.441 95.7913C102.649 95.3957 102.941 95.0566 103.317 94.7741C103.713 94.4726 104.193 94.2372 104.758 94.0676C105.324 93.8792 105.974 93.7851 106.708 93.7851C107.933 93.7851 108.969 94.0488 109.817 94.5763C110.683 95.0849 111.192 95.8949 111.342 97.0064H113.264C113.151 96.3094 112.897 95.6877 112.501 95.1414C112.105 94.5763 111.606 94.1053 111.003 93.7285C110.4 93.3329 109.713 93.041 108.941 92.8526C108.187 92.6454 107.396 92.5417 106.567 92.5417C105.7 92.5417 104.872 92.6548 104.08 92.8808C103.308 93.1069 102.62 93.4366 102.018 93.8698C101.434 94.3031 100.963 94.8494 100.605 95.5087C100.266 96.1681 100.096 96.9216 100.096 97.7693C100.096 98.8807 100.379 99.7756 100.944 100.454C101.509 101.132 102.215 101.697 103.063 102.149C103.93 102.601 104.862 102.987 105.861 103.308C106.859 103.628 107.782 103.995 108.63 104.41C109.496 104.805 110.212 105.295 110.777 105.879C111.342 106.463 111.625 107.245 111.625 108.224C111.625 109.449 111.173 110.344 110.269 110.909C109.383 111.474 108.196 111.757 106.708 111.757C105.521 111.757 104.57 111.606 103.854 111.304C103.138 110.984 102.592 110.607 102.215 110.174C101.839 109.741 101.584 109.298 101.452 108.846C101.321 108.375 101.245 107.98 101.226 107.659H99.3049Z"/>
</mask>
<path d="M1.00098 92.8808V112.661H3.57237V102.827H12.3321V101.527H3.57237V94.435H13.7732V92.8808H1.00098Z" fill="black"/>
<path d="M16.1627 92.8808V105.031C16.1627 105.804 16.238 106.661 16.3887 107.603C16.5394 108.526 16.8973 109.392 17.4625 110.202C18.0276 110.994 18.8659 111.662 19.9774 112.209C21.0888 112.736 22.6053 113 24.5268 113C25.7324 113 26.7967 112.811 27.7198 112.435C28.6617 112.058 29.4435 111.54 30.0651 110.881C30.7056 110.221 31.186 109.458 31.5062 108.592C31.8265 107.706 31.9866 106.764 31.9866 105.766V92.8808H30.7433V104.834C30.7433 105.248 30.7339 105.672 30.715 106.105C30.6962 106.52 30.6397 106.943 30.5455 107.377C30.4513 107.791 30.3006 108.206 30.0934 108.62C29.905 109.034 29.6224 109.449 29.2457 109.863C28.5675 110.598 27.8046 111.097 26.9569 111.361C26.1091 111.625 25.2238 111.757 24.3007 111.757C23.5095 111.757 22.8031 111.634 22.1814 111.389C21.5786 111.144 21.004 110.777 20.4577 110.287C20.0245 109.91 19.6948 109.534 19.4687 109.157C19.2427 108.78 19.0731 108.413 18.9601 108.055C18.8471 107.678 18.7811 107.301 18.7623 106.925C18.7435 106.548 18.7341 106.171 18.7341 105.794V92.8808H16.1627Z" fill="black"/>
<path d="M44.2425 112.661V94.435H51.8153V92.8808H34.0982V94.435H41.6711V112.661H44.2425Z" fill="black"/>
<path d="M53.9344 92.8808V105.031C53.9344 105.804 54.0098 106.661 54.1605 107.603C54.3112 108.526 54.6691 109.392 55.2342 110.202C55.7994 110.994 56.6377 111.662 57.7491 112.209C58.8606 112.736 60.377 113 62.2985 113C63.5041 113 64.5685 112.811 65.4915 112.435C66.4334 112.058 67.2152 111.54 67.8369 110.881C68.4774 110.221 68.9577 109.458 69.278 108.592C69.5982 107.706 69.7584 106.764 69.7584 105.766V92.8808H68.5151V104.834C68.5151 105.248 68.5056 105.672 68.4868 106.105C68.468 106.52 68.4114 106.943 68.3173 107.377C68.2231 107.791 68.0724 108.206 67.8651 108.62C67.6768 109.034 67.3942 109.449 67.0174 109.863C66.3393 110.598 65.5763 111.097 64.7286 111.361C63.8809 111.625 62.9955 111.757 62.0724 111.757C61.2812 111.757 60.5748 111.634 59.9532 111.389C59.3503 111.144 58.7758 110.777 58.2295 110.287C57.7962 109.91 57.4665 109.534 57.2405 109.157C57.0144 108.78 56.8449 108.413 56.7319 108.055C56.6188 107.678 56.5529 107.301 56.5341 106.925C56.5152 106.548 56.5058 106.171 56.5058 105.794V92.8808H53.9344Z" fill="black"/>
<path d="M73.1978 92.8808V112.661H75.7692V103.929H77.0125C77.54 103.929 77.9732 103.976 78.3123 104.071C78.6702 104.165 78.9905 104.325 79.2731 104.551C79.5556 104.777 79.8194 105.069 80.0643 105.427C80.3092 105.785 80.6011 106.228 80.9402 106.755L83.1725 110.061C83.4551 110.494 83.7282 110.89 83.992 111.248C84.2746 111.606 84.576 111.917 84.8962 112.18C85.2165 112.425 85.5744 112.623 85.97 112.774C86.3844 112.925 86.8742 113 87.4393 113C87.8538 113 88.1929 112.981 88.4566 112.943C88.7203 112.906 88.9841 112.811 89.2478 112.661V111.615C89.1536 111.634 89.0594 111.653 88.9652 111.672C88.871 111.672 88.7768 111.672 88.6827 111.672C88.2871 111.672 87.9386 111.615 87.6371 111.502C87.3357 111.389 87.0532 111.229 86.7894 111.022C86.5257 110.796 86.2714 110.532 86.0265 110.231C85.7816 109.91 85.5273 109.552 85.2636 109.157C84.4724 108.008 83.8601 107.094 83.4268 106.416C82.9936 105.719 82.6451 105.182 82.3813 104.805C82.1364 104.429 81.9292 104.155 81.7597 103.986C81.609 103.816 81.4206 103.675 81.1945 103.562L80.912 103.421V103.308C81.8162 103.251 82.5885 103.053 83.229 102.714C83.8884 102.375 84.4253 101.951 84.8397 101.443C85.2541 100.934 85.5555 100.388 85.7439 99.8038C85.9323 99.201 86.0265 98.617 86.0265 98.0519C86.0265 97.5432 85.9229 96.9875 85.7157 96.3847C85.5273 95.7819 85.1882 95.2262 84.6984 94.7175C84.2275 94.1901 83.5776 93.7568 82.7487 93.4177C81.9198 93.0598 80.8743 92.8808 79.6121 92.8808H73.1978ZM75.7692 94.1241H78.6231C79.339 94.1241 79.9795 94.2278 80.5446 94.435C81.1286 94.6422 81.6278 94.9342 82.0423 95.3109C82.4567 95.6689 82.7675 96.1021 82.9747 96.6108C83.2008 97.1194 83.3138 97.6751 83.3138 98.2779C83.3138 98.7866 83.2102 99.3046 83.003 99.8321C82.8146 100.341 82.5226 100.812 82.127 101.245C81.7314 101.659 81.2416 101.998 80.6576 102.262C80.0925 102.526 79.4332 102.658 78.6797 102.658H75.7692V94.1241Z" fill="black"/>
<path d="M92.5759 92.8808V112.661H95.1473V102.771V92.8808H92.5759Z" fill="black"/>
<path d="M99.3049 107.659C99.3425 108.469 99.5498 109.204 99.9265 109.863C100.322 110.523 100.85 111.088 101.509 111.559C102.187 112.011 102.978 112.369 103.883 112.633C104.787 112.877 105.776 113 106.85 113C107.942 113 108.922 112.868 109.788 112.604C110.674 112.341 111.427 111.964 112.049 111.474C112.67 110.984 113.151 110.391 113.49 109.694C113.829 108.997 113.999 108.224 113.999 107.377C113.999 106.209 113.707 105.257 113.123 104.523C112.539 103.769 111.804 103.148 110.919 102.658C110.052 102.149 109.101 101.725 108.065 101.386C107.047 101.047 106.096 100.689 105.211 100.312C104.344 99.9357 103.619 99.5024 103.035 99.0126C102.451 98.5228 102.159 97.8729 102.159 97.0629C102.159 96.6108 102.253 96.1869 102.441 95.7913C102.649 95.3957 102.941 95.0566 103.317 94.7741C103.713 94.4726 104.193 94.2372 104.758 94.0676C105.324 93.8792 105.974 93.7851 106.708 93.7851C107.933 93.7851 108.969 94.0488 109.817 94.5763C110.683 95.0849 111.192 95.8949 111.342 97.0064H113.264C113.151 96.3094 112.897 95.6877 112.501 95.1414C112.105 94.5763 111.606 94.1053 111.003 93.7285C110.4 93.3329 109.713 93.041 108.941 92.8526C108.187 92.6454 107.396 92.5417 106.567 92.5417C105.7 92.5417 104.872 92.6548 104.08 92.8808C103.308 93.1069 102.62 93.4366 102.018 93.8698C101.434 94.3031 100.963 94.8494 100.605 95.5087C100.266 96.1681 100.096 96.9216 100.096 97.7693C100.096 98.8807 100.379 99.7756 100.944 100.454C101.509 101.132 102.215 101.697 103.063 102.149C103.93 102.601 104.862 102.987 105.861 103.308C106.859 103.628 107.782 103.995 108.63 104.41C109.496 104.805 110.212 105.295 110.777 105.879C111.342 106.463 111.625 107.245 111.625 108.224C111.625 109.449 111.173 110.344 110.269 110.909C109.383 111.474 108.196 111.757 106.708 111.757C105.521 111.757 104.57 111.606 103.854 111.304C103.138 110.984 102.592 110.607 102.215 110.174C101.839 109.741 101.584 109.298 101.452 108.846C101.321 108.375 101.245 107.98 101.226 107.659H99.3049Z" fill="black"/>
<path d="M1.00098 92.8808V112.661H3.57237V102.827H12.3321V101.527H3.57237V94.435H13.7732V92.8808H1.00098Z" stroke="#002874" stroke-width="0.353213" mask="url(#path-1-outside-1_2641_1043)"/>
<path d="M16.1627 92.8808V105.031C16.1627 105.804 16.238 106.661 16.3887 107.603C16.5394 108.526 16.8973 109.392 17.4625 110.202C18.0276 110.994 18.8659 111.662 19.9774 112.209C21.0888 112.736 22.6053 113 24.5268 113C25.7324 113 26.7967 112.811 27.7198 112.435C28.6617 112.058 29.4435 111.54 30.0651 110.881C30.7056 110.221 31.186 109.458 31.5062 108.592C31.8265 107.706 31.9866 106.764 31.9866 105.766V92.8808H30.7433V104.834C30.7433 105.248 30.7339 105.672 30.715 106.105C30.6962 106.52 30.6397 106.943 30.5455 107.377C30.4513 107.791 30.3006 108.206 30.0934 108.62C29.905 109.034 29.6224 109.449 29.2457 109.863C28.5675 110.598 27.8046 111.097 26.9569 111.361C26.1091 111.625 25.2238 111.757 24.3007 111.757C23.5095 111.757 22.8031 111.634 22.1814 111.389C21.5786 111.144 21.004 110.777 20.4577 110.287C20.0245 109.91 19.6948 109.534 19.4687 109.157C19.2427 108.78 19.0731 108.413 18.9601 108.055C18.8471 107.678 18.7811 107.301 18.7623 106.925C18.7435 106.548 18.7341 106.171 18.7341 105.794V92.8808H16.1627Z" stroke="#002874" stroke-width="0.353213" mask="url(#path-1-outside-1_2641_1043)"/>
<path d="M44.2425 112.661V94.435H51.8153V92.8808H34.0982V94.435H41.6711V112.661H44.2425Z" stroke="#002874" stroke-width="0.353213" mask="url(#path-1-outside-1_2641_1043)"/>
<path d="M53.9344 92.8808V105.031C53.9344 105.804 54.0098 106.661 54.1605 107.603C54.3112 108.526 54.6691 109.392 55.2342 110.202C55.7994 110.994 56.6377 111.662 57.7491 112.209C58.8606 112.736 60.377 113 62.2985 113C63.5041 113 64.5685 112.811 65.4915 112.435C66.4334 112.058 67.2152 111.54 67.8369 110.881C68.4774 110.221 68.9577 109.458 69.278 108.592C69.5982 107.706 69.7584 106.764 69.7584 105.766V92.8808H68.5151V104.834C68.5151 105.248 68.5056 105.672 68.4868 106.105C68.468 106.52 68.4114 106.943 68.3173 107.377C68.2231 107.791 68.0724 108.206 67.8651 108.62C67.6768 109.034 67.3942 109.449 67.0174 109.863C66.3393 110.598 65.5763 111.097 64.7286 111.361C63.8809 111.625 62.9955 111.757 62.0724 111.757C61.2812 111.757 60.5748 111.634 59.9532 111.389C59.3503 111.144 58.7758 110.777 58.2295 110.287C57.7962 109.91 57.4665 109.534 57.2405 109.157C57.0144 108.78 56.8449 108.413 56.7319 108.055C56.6188 107.678 56.5529 107.301 56.5341 106.925C56.5152 106.548 56.5058 106.171 56.5058 105.794V92.8808H53.9344Z" stroke="#002874" stroke-width="0.353213" mask="url(#path-1-outside-1_2641_1043)"/>
<path d="M73.1978 92.8808V112.661H75.7692V103.929H77.0125C77.54 103.929 77.9732 103.976 78.3123 104.071C78.6702 104.165 78.9905 104.325 79.2731 104.551C79.5556 104.777 79.8194 105.069 80.0643 105.427C80.3092 105.785 80.6011 106.228 80.9402 106.755L83.1725 110.061C83.4551 110.494 83.7282 110.89 83.992 111.248C84.2746 111.606 84.576 111.917 84.8962 112.18C85.2165 112.425 85.5744 112.623 85.97 112.774C86.3844 112.925 86.8742 113 87.4393 113C87.8538 113 88.1929 112.981 88.4566 112.943C88.7203 112.906 88.9841 112.811 89.2478 112.661V111.615C89.1536 111.634 89.0594 111.653 88.9652 111.672C88.871 111.672 88.7768 111.672 88.6827 111.672C88.2871 111.672 87.9386 111.615 87.6371 111.502C87.3357 111.389 87.0532 111.229 86.7894 111.022C86.5257 110.796 86.2714 110.532 86.0265 110.231C85.7816 109.91 85.5273 109.552 85.2636 109.157C84.4724 108.008 83.8601 107.094 83.4268 106.416C82.9936 105.719 82.6451 105.182 82.3813 104.805C82.1364 104.429 81.9292 104.155 81.7597 103.986C81.609 103.816 81.4206 103.675 81.1945 103.562L80.912 103.421V103.308C81.8162 103.251 82.5885 103.053 83.229 102.714C83.8884 102.375 84.4253 101.951 84.8397 101.443C85.2541 100.934 85.5555 100.388 85.7439 99.8038C85.9323 99.201 86.0265 98.617 86.0265 98.0519C86.0265 97.5432 85.9229 96.9875 85.7157 96.3847C85.5273 95.7819 85.1882 95.2262 84.6984 94.7175C84.2275 94.1901 83.5776 93.7568 82.7487 93.4177C81.9198 93.0598 80.8743 92.8808 79.6121 92.8808H73.1978ZM75.7692 94.1241H78.6231C79.339 94.1241 79.9795 94.2278 80.5446 94.435C81.1286 94.6422 81.6278 94.9342 82.0423 95.3109C82.4567 95.6689 82.7675 96.1021 82.9747 96.6108C83.2008 97.1194 83.3138 97.6751 83.3138 98.2779C83.3138 98.7866 83.2102 99.3046 83.003 99.8321C82.8146 100.341 82.5226 100.812 82.127 101.245C81.7314 101.659 81.2416 101.998 80.6576 102.262C80.0925 102.526 79.4332 102.658 78.6797 102.658H75.7692V94.1241Z" stroke="#002874" stroke-width="0.353213" mask="url(#path-1-outside-1_2641_1043)"/>
<path d="M92.5759 92.8808V112.661H95.1473V102.771V92.8808H92.5759Z" stroke="#002874" stroke-width="0.353213" mask="url(#path-1-outside-1_2641_1043)"/>
<path d="M99.3049 107.659C99.3425 108.469 99.5498 109.204 99.9265 109.863C100.322 110.523 100.85 111.088 101.509 111.559C102.187 112.011 102.978 112.369 103.883 112.633C104.787 112.877 105.776 113 106.85 113C107.942 113 108.922 112.868 109.788 112.604C110.674 112.341 111.427 111.964 112.049 111.474C112.67 110.984 113.151 110.391 113.49 109.694C113.829 108.997 113.999 108.224 113.999 107.377C113.999 106.209 113.707 105.257 113.123 104.523C112.539 103.769 111.804 103.148 110.919 102.658C110.052 102.149 109.101 101.725 108.065 101.386C107.047 101.047 106.096 100.689 105.211 100.312C104.344 99.9357 103.619 99.5024 103.035 99.0126C102.451 98.5228 102.159 97.8729 102.159 97.0629C102.159 96.6108 102.253 96.1869 102.441 95.7913C102.649 95.3957 102.941 95.0566 103.317 94.7741C103.713 94.4726 104.193 94.2372 104.758 94.0676C105.324 93.8792 105.974 93.7851 106.708 93.7851C107.933 93.7851 108.969 94.0488 109.817 94.5763C110.683 95.0849 111.192 95.8949 111.342 97.0064H113.264C113.151 96.3094 112.897 95.6877 112.501 95.1414C112.105 94.5763 111.606 94.1053 111.003 93.7285C110.4 93.3329 109.713 93.041 108.941 92.8526C108.187 92.6454 107.396 92.5417 106.567 92.5417C105.7 92.5417 104.872 92.6548 104.08 92.8808C103.308 93.1069 102.62 93.4366 102.018 93.8698C101.434 94.3031 100.963 94.8494 100.605 95.5087C100.266 96.1681 100.096 96.9216 100.096 97.7693C100.096 98.8807 100.379 99.7756 100.944 100.454C101.509 101.132 102.215 101.697 103.063 102.149C103.93 102.601 104.862 102.987 105.861 103.308C106.859 103.628 107.782 103.995 108.63 104.41C109.496 104.805 110.212 105.295 110.777 105.879C111.342 106.463 111.625 107.245 111.625 108.224C111.625 109.449 111.173 110.344 110.269 110.909C109.383 111.474 108.196 111.757 106.708 111.757C105.521 111.757 104.57 111.606 103.854 111.304C103.138 110.984 102.592 110.607 102.215 110.174C101.839 109.741 101.584 109.298 101.452 108.846C101.321 108.375 101.245 107.98 101.226 107.659H99.3049Z" stroke="#002874" stroke-width="0.353213" mask="url(#path-1-outside-1_2641_1043)"/>
<path d="M59.4569 24.1749C59.9796 12.1528 64.4661 4.57368 66.644 2.28687C61.418 4.57368 54.8833 19.928 53.9032 26.7884C52.9232 33.6489 54.8833 41.816 57.1701 49.9832C58.9996 56.517 58.489 67.531 57.8235 72.198C57.279 75.247 56.19 81.6066 56.19 82.652C63.0048 72.4573 64.3572 60.7639 64.3572 54.8835C64.3572 50.1792 63.2683 45.5185 62.7238 43.7762C61.9615 41.4894 60.3063 36.197 59.7836 33.3222C59.1302 29.7286 59.4569 28.7485 59.4569 24.1749Z" fill="black"/>
<path d="M51.1227 28.0951C52.9907 14.5498 62.0791 1.19319 66.1504 0C55.4341 3.1362 48.1886 19.2746 47.2037 27.4417C46.5512 30.7086 46.5524 35.5865 47.2037 40.5092C48.1977 48.023 54.0781 59.4571 57.331 61.4172C54.0781 57.497 51.314 43.4494 51.1379 42.1427C50.9618 40.8359 50.8924 40.5092 50.6351 36.2623C50.6675 34.3636 50.6155 31.7735 51.1227 28.0951Z" fill="#AAAAAA"/>
<path d="M66.6429 41.1627C73.9607 36.1971 69.692 32.1244 66.6429 30.7087C71.8699 31.0354 74.1567 33.6489 74.4834 34.9557C74.6419 35.5895 74.4834 36.9158 73.1767 38.5492C65.6629 46.063 51.6153 51.6167 44.7549 53.2502C54.8822 49.9833 57.4957 47.3698 66.6429 41.1627Z" fill="url(#paint0_linear_2641_1043)"/>
<path d="M61.7425 31.0355C69.0603 26.0699 64.7916 21.9972 61.7425 20.5815C66.9695 20.9082 69.2564 23.5217 69.583 24.8285C69.7415 25.4623 69.583 26.7886 68.2763 28.422C60.7625 35.9358 46.7149 41.4895 39.8545 43.123C49.9818 39.8561 52.5953 37.2426 61.7425 31.0355Z" fill="url(#paint1_linear_2641_1043)"/>
<defs>
<linearGradient id="paint0_linear_2641_1043" x1="59.6444" y1="30.7087" x2="59.6444" y2="53.2502" gradientUnits="userSpaceOnUse">
<stop offset="0.473958" stop-color="#AAAAAA"/>
<stop offset="1"/>
</linearGradient>
<linearGradient id="paint1_linear_2641_1043" x1="54.744" y1="20.5815" x2="54.744" y2="43.123" gradientUnits="userSpaceOnUse">
<stop offset="0.536458" stop-color="#AAAAAA"/>
<stop offset="1"/>
</linearGradient>
</defs>
</svg>
