<svg xmlns="http://www.w3.org/2000/svg" width="115" height="114" fill="none"><mask id="a" width="115" height="22" x=".001" y="91.542" fill="#000" maskUnits="userSpaceOnUse"><path fill="#fff" d="M.001 91.542h115v22h-115z"/><path d="M1.001 92.88v19.781h2.571v-9.834h8.76v-1.3h-8.76v-7.092h10.201v-1.554H1.001ZM16.163 92.88v12.151c0 .773.075 1.63.226 2.572.15.923.508 1.789 1.073 2.599.566.792 1.404 1.46 2.515 2.007 1.112.527 2.628.791 4.55.791 1.205 0 2.27-.189 3.193-.565.942-.377 1.724-.895 2.345-1.554a6.476 6.476 0 0 0 1.441-2.289c.32-.886.48-1.828.48-2.826V92.881h-1.243v11.953c0 .414-.01.838-.028 1.271a7.61 7.61 0 0 1-.17 1.272 5.509 5.509 0 0 1-.452 1.243 4.866 4.866 0 0 1-.847 1.243c-.678.735-1.441 1.234-2.29 1.498a8.882 8.882 0 0 1-2.655.396c-.791 0-1.498-.123-2.12-.368a5.93 5.93 0 0 1-1.723-1.102c-.433-.377-.763-.753-.99-1.13a5.198 5.198 0 0 1-.508-1.102 4.753 4.753 0 0 1-.198-1.13 22.705 22.705 0 0 1-.028-1.131V92.881h-2.571ZM44.242 112.661V94.435h7.573v-1.554H34.098v1.554h7.573v18.226h2.572ZM53.934 92.88v12.151c0 .773.076 1.63.227 2.572.15.923.508 1.789 1.073 2.599.565.792 1.404 1.46 2.515 2.007 1.112.527 2.628.791 4.55.791 1.205 0 2.27-.189 3.193-.565.941-.377 1.723-.895 2.345-1.554a6.477 6.477 0 0 0 1.441-2.289 8.25 8.25 0 0 0 .48-2.826V92.881h-1.243v11.953c0 .414-.01.838-.028 1.271a7.621 7.621 0 0 1-.17 1.272 5.504 5.504 0 0 1-.452 1.243 4.86 4.86 0 0 1-.848 1.243c-.678.735-1.44 1.234-2.288 1.498a8.881 8.881 0 0 1-2.657.396c-.79 0-1.497-.123-2.119-.368a5.928 5.928 0 0 1-1.724-1.102c-.433-.377-.762-.753-.989-1.13a5.193 5.193 0 0 1-.508-1.102 4.748 4.748 0 0 1-.198-1.13 22.585 22.585 0 0 1-.028-1.131V92.881h-2.572ZM73.198 92.88v19.781h2.571v-8.732h1.243c.528 0 .961.047 1.3.142.358.094.678.254.961.48.283.226.546.518.791.876s.537.801.876 1.328l2.233 3.306c.282.433.555.829.819 1.187.283.358.584.669.904.932.32.245.678.443 1.074.594.414.151.904.226 1.47.226.414 0 .753-.019 1.017-.057.263-.037.527-.132.79-.282v-1.046l-.282.057h-.282a2.97 2.97 0 0 1-1.046-.17 3.172 3.172 0 0 1-.848-.48 6.144 6.144 0 0 1-.763-.791c-.244-.321-.499-.679-.762-1.074a101.483 101.483 0 0 1-1.837-2.741 37.543 37.543 0 0 0-1.046-1.611c-.245-.376-.452-.65-.621-.819-.151-.17-.34-.311-.566-.424l-.282-.141v-.113c.904-.057 1.676-.255 2.317-.594.66-.339 1.196-.763 1.61-1.271a5.03 5.03 0 0 0 .905-1.64 5.86 5.86 0 0 0 .282-1.751c0-.509-.103-1.065-.31-1.667-.189-.603-.528-1.159-1.018-1.668-.47-.527-1.12-.96-1.95-1.3-.828-.357-1.874-.536-3.136-.536h-6.414Zm2.571 1.244h2.854c.716 0 1.356.104 1.922.311.584.207 1.083.5 1.497.876.415.358.725.791.933 1.3.226.508.339 1.064.339 1.667 0 .509-.104 1.027-.311 1.554-.188.509-.48.98-.876 1.413a4.656 4.656 0 0 1-1.47 1.017c-.564.264-1.224.396-1.977.396h-2.91v-8.534ZM92.576 92.88v19.781h2.571v-19.78h-2.571ZM99.305 107.659c.037.81.245 1.545.621 2.204.396.66.924 1.225 1.583 1.696.678.452 1.469.81 2.374 1.074.904.244 1.893.367 2.967.367 1.092 0 2.072-.132 2.938-.396.886-.263 1.639-.64 2.261-1.13a5.069 5.069 0 0 0 1.441-1.78c.339-.697.509-1.47.509-2.317 0-1.168-.292-2.12-.876-2.854a7.09 7.09 0 0 0-2.204-1.865 14.56 14.56 0 0 0-2.854-1.272 37.6 37.6 0 0 1-2.854-1.074c-.867-.376-1.592-.81-2.176-1.3-.584-.49-.876-1.14-.876-1.95 0-.451.094-.875.282-1.27.208-.396.5-.735.876-1.018a4.48 4.48 0 0 1 1.441-.706c.566-.189 1.216-.283 1.95-.283 1.225 0 2.261.264 3.109.791.866.509 1.375 1.319 1.525 2.43h1.922a4.302 4.302 0 0 0-.763-1.865 5.118 5.118 0 0 0-1.498-1.413 6.56 6.56 0 0 0-2.062-.875 8.918 8.918 0 0 0-2.374-.311c-.867 0-1.695.113-2.487.339a6.745 6.745 0 0 0-2.062.989 4.956 4.956 0 0 0-1.413 1.639c-.339.66-.509 1.413-.509 2.26 0 1.112.283 2.007.848 2.685a7.01 7.01 0 0 0 2.119 1.695 17.85 17.85 0 0 0 2.798 1.159c.998.32 1.921.687 2.769 1.102.866.395 1.582.885 2.147 1.469.565.584.848 1.366.848 2.345 0 1.225-.452 2.12-1.356 2.685-.886.565-2.073.848-3.561.848-1.187 0-2.138-.151-2.854-.453-.716-.32-1.262-.697-1.639-1.13-.376-.433-.631-.876-.763-1.328-.131-.471-.207-.866-.226-1.187h-1.921Z"/></mask><path fill="#000" d="M1.001 92.88v19.781h2.571v-9.834h8.76v-1.3h-8.76v-7.092h10.201v-1.554H1.001ZM16.163 92.88v12.151c0 .773.075 1.63.226 2.572.15.923.508 1.789 1.073 2.599.566.792 1.404 1.46 2.515 2.007 1.112.527 2.628.791 4.55.791 1.205 0 2.27-.189 3.193-.565.942-.377 1.724-.895 2.345-1.554a6.476 6.476 0 0 0 1.441-2.289c.32-.886.48-1.828.48-2.826V92.881h-1.243v11.953c0 .414-.01.838-.028 1.271a7.61 7.61 0 0 1-.17 1.272 5.509 5.509 0 0 1-.452 1.243 4.866 4.866 0 0 1-.847 1.243c-.678.735-1.441 1.234-2.29 1.498a8.882 8.882 0 0 1-2.655.396c-.791 0-1.498-.123-2.12-.368a5.93 5.93 0 0 1-1.723-1.102c-.433-.377-.763-.753-.99-1.13a5.198 5.198 0 0 1-.508-1.102 4.753 4.753 0 0 1-.198-1.13 22.705 22.705 0 0 1-.028-1.131V92.881h-2.571ZM44.242 112.661V94.435h7.573v-1.554H34.098v1.554h7.573v18.226h2.572ZM53.934 92.88v12.151c0 .773.076 1.63.227 2.572.15.923.508 1.789 1.073 2.599.565.792 1.404 1.46 2.515 2.007 1.112.527 2.628.791 4.55.791 1.205 0 2.27-.189 3.193-.565.941-.377 1.723-.895 2.345-1.554a6.477 6.477 0 0 0 1.441-2.289 8.25 8.25 0 0 0 .48-2.826V92.881h-1.243v11.953c0 .414-.01.838-.028 1.271a7.621 7.621 0 0 1-.17 1.272 5.504 5.504 0 0 1-.452 1.243 4.86 4.86 0 0 1-.848 1.243c-.678.735-1.44 1.234-2.288 1.498a8.881 8.881 0 0 1-2.657.396c-.79 0-1.497-.123-2.119-.368a5.928 5.928 0 0 1-1.724-1.102c-.433-.377-.762-.753-.989-1.13a5.193 5.193 0 0 1-.508-1.102 4.748 4.748 0 0 1-.198-1.13 22.585 22.585 0 0 1-.028-1.131V92.881h-2.572ZM73.198 92.88v19.781h2.571v-8.732h1.243c.528 0 .961.047 1.3.142.358.094.678.254.961.48.283.226.546.518.791.876s.537.801.876 1.328l2.233 3.306c.282.433.555.829.819 1.187.283.358.584.669.904.932.32.245.678.443 1.074.594.414.151.904.226 1.47.226.414 0 .753-.019 1.017-.057.263-.037.527-.132.79-.282v-1.046l-.282.057h-.282a2.97 2.97 0 0 1-1.046-.17 3.172 3.172 0 0 1-.848-.48 6.144 6.144 0 0 1-.763-.791c-.244-.321-.499-.679-.762-1.074a101.483 101.483 0 0 1-1.837-2.741 37.543 37.543 0 0 0-1.046-1.611c-.245-.376-.452-.65-.621-.819-.151-.17-.34-.311-.566-.424l-.282-.141v-.113c.904-.057 1.676-.255 2.317-.594.66-.339 1.196-.763 1.61-1.271a5.03 5.03 0 0 0 .905-1.64 5.86 5.86 0 0 0 .282-1.751c0-.509-.103-1.065-.31-1.667-.189-.603-.528-1.159-1.018-1.668-.47-.527-1.12-.96-1.95-1.3-.828-.357-1.874-.536-3.136-.536h-6.414Zm2.571 1.244h2.854c.716 0 1.356.104 1.922.311.584.207 1.083.5 1.497.876.415.358.725.791.933 1.3.226.508.339 1.064.339 1.667 0 .509-.104 1.027-.311 1.554-.188.509-.48.98-.876 1.413a4.656 4.656 0 0 1-1.47 1.017c-.564.264-1.224.396-1.977.396h-2.91v-8.534ZM92.576 92.88v19.781h2.571v-19.78h-2.571ZM99.305 107.659c.037.81.245 1.545.621 2.204.396.66.924 1.225 1.583 1.696.678.452 1.469.81 2.374 1.074.904.244 1.893.367 2.967.367 1.092 0 2.072-.132 2.938-.396.886-.263 1.639-.64 2.261-1.13a5.069 5.069 0 0 0 1.441-1.78c.339-.697.509-1.47.509-2.317 0-1.168-.292-2.12-.876-2.854a7.09 7.09 0 0 0-2.204-1.865 14.56 14.56 0 0 0-2.854-1.272 37.6 37.6 0 0 1-2.854-1.074c-.867-.376-1.592-.81-2.176-1.3-.584-.49-.876-1.14-.876-1.95 0-.451.094-.875.282-1.27.208-.396.5-.735.876-1.018a4.48 4.48 0 0 1 1.441-.706c.566-.189 1.216-.283 1.95-.283 1.225 0 2.261.264 3.109.791.866.509 1.375 1.319 1.525 2.43h1.922a4.302 4.302 0 0 0-.763-1.865 5.118 5.118 0 0 0-1.498-1.413 6.56 6.56 0 0 0-2.062-.875 8.918 8.918 0 0 0-2.374-.311c-.867 0-1.695.113-2.487.339a6.745 6.745 0 0 0-2.062.989 4.956 4.956 0 0 0-1.413 1.639c-.339.66-.509 1.413-.509 2.26 0 1.112.283 2.007.848 2.685a7.01 7.01 0 0 0 2.119 1.695 17.85 17.85 0 0 0 2.798 1.159c.998.32 1.921.687 2.769 1.102.866.395 1.582.885 2.147 1.469.565.584.848 1.366.848 2.345 0 1.225-.452 2.12-1.356 2.685-.886.565-2.073.848-3.561.848-1.187 0-2.138-.151-2.854-.453-.716-.32-1.262-.697-1.639-1.13-.376-.433-.631-.876-.763-1.328-.131-.471-.207-.866-.226-1.187h-1.921Z"/><path stroke="#002874" stroke-width=".353" d="M1.001 92.88v19.781h2.571v-9.834h8.76v-1.3h-8.76v-7.092h10.201v-1.554H1.001ZM16.163 92.88v12.151c0 .773.075 1.63.226 2.572.15.923.508 1.789 1.073 2.599.566.792 1.404 1.46 2.515 2.007 1.112.527 2.628.791 4.55.791 1.205 0 2.27-.189 3.193-.565.942-.377 1.724-.895 2.345-1.554a6.476 6.476 0 0 0 1.441-2.289c.32-.886.48-1.828.48-2.826V92.881h-1.243v11.953c0 .414-.01.838-.028 1.271a7.61 7.61 0 0 1-.17 1.272 5.509 5.509 0 0 1-.452 1.243 4.866 4.866 0 0 1-.847 1.243c-.678.735-1.441 1.234-2.29 1.498a8.882 8.882 0 0 1-2.655.396c-.791 0-1.498-.123-2.12-.368a5.93 5.93 0 0 1-1.723-1.102c-.433-.377-.763-.753-.99-1.13a5.198 5.198 0 0 1-.508-1.102 4.753 4.753 0 0 1-.198-1.13 22.705 22.705 0 0 1-.028-1.131V92.881h-2.571ZM44.242 112.661V94.435h7.573v-1.554H34.098v1.554h7.573v18.226h2.572ZM53.934 92.88v12.151c0 .773.076 1.63.227 2.572.15.923.508 1.789 1.073 2.599.565.792 1.404 1.46 2.515 2.007 1.112.527 2.628.791 4.55.791 1.205 0 2.27-.189 3.193-.565.941-.377 1.723-.895 2.345-1.554a6.477 6.477 0 0 0 1.441-2.289 8.25 8.25 0 0 0 .48-2.826V92.881h-1.243v11.953c0 .414-.01.838-.028 1.271a7.621 7.621 0 0 1-.17 1.272 5.504 5.504 0 0 1-.452 1.243 4.86 4.86 0 0 1-.848 1.243c-.678.735-1.44 1.234-2.288 1.498a8.881 8.881 0 0 1-2.657.396c-.79 0-1.497-.123-2.119-.368a5.928 5.928 0 0 1-1.724-1.102c-.433-.377-.762-.753-.989-1.13a5.193 5.193 0 0 1-.508-1.102 4.748 4.748 0 0 1-.198-1.13 22.585 22.585 0 0 1-.028-1.131V92.881h-2.572ZM73.198 92.88v19.781h2.571v-8.732h1.243c.528 0 .961.047 1.3.142.358.094.678.254.961.48.283.226.546.518.791.876s.537.801.876 1.328l2.233 3.306c.282.433.555.829.819 1.187.283.358.584.669.904.932.32.245.678.443 1.074.594.414.151.904.226 1.47.226.414 0 .753-.019 1.017-.057.263-.037.527-.132.79-.282v-1.046l-.282.057h-.282a2.97 2.97 0 0 1-1.046-.17 3.172 3.172 0 0 1-.848-.48 6.144 6.144 0 0 1-.763-.791c-.244-.321-.499-.679-.762-1.074a101.483 101.483 0 0 1-1.837-2.741 37.543 37.543 0 0 0-1.046-1.611c-.245-.376-.452-.65-.621-.819-.151-.17-.34-.311-.566-.424l-.282-.141v-.113c.904-.057 1.676-.255 2.317-.594.66-.339 1.196-.763 1.61-1.271a5.03 5.03 0 0 0 .905-1.64 5.86 5.86 0 0 0 .282-1.751c0-.509-.103-1.065-.31-1.667-.189-.603-.528-1.159-1.018-1.668-.47-.527-1.12-.96-1.95-1.3-.828-.357-1.874-.536-3.136-.536h-6.414Zm2.571 1.244h2.854c.716 0 1.356.104 1.922.311.584.207 1.083.5 1.497.876.415.358.725.791.933 1.3.226.508.339 1.064.339 1.667 0 .509-.104 1.027-.311 1.554-.188.509-.48.98-.876 1.413a4.656 4.656 0 0 1-1.47 1.017c-.564.264-1.224.396-1.977.396h-2.91v-8.534ZM92.576 92.88v19.781h2.571v-19.78h-2.571ZM99.305 107.659c.037.81.245 1.545.621 2.204.396.66.924 1.225 1.583 1.696.678.452 1.469.81 2.374 1.074.904.244 1.893.367 2.967.367 1.092 0 2.072-.132 2.938-.396.886-.263 1.639-.64 2.261-1.13a5.069 5.069 0 0 0 1.441-1.78c.339-.697.509-1.47.509-2.317 0-1.168-.292-2.12-.876-2.854a7.09 7.09 0 0 0-2.204-1.865 14.56 14.56 0 0 0-2.854-1.272 37.6 37.6 0 0 1-2.854-1.074c-.867-.376-1.592-.81-2.176-1.3-.584-.49-.876-1.14-.876-1.95 0-.451.094-.875.282-1.27.208-.396.5-.735.876-1.018a4.48 4.48 0 0 1 1.441-.706c.566-.189 1.216-.283 1.95-.283 1.225 0 2.261.264 3.109.791.866.509 1.375 1.319 1.525 2.43h1.922a4.302 4.302 0 0 0-.763-1.865 5.118 5.118 0 0 0-1.498-1.413 6.56 6.56 0 0 0-2.062-.875 8.918 8.918 0 0 0-2.374-.311c-.867 0-1.695.113-2.487.339a6.745 6.745 0 0 0-2.062.989 4.956 4.956 0 0 0-1.413 1.639c-.339.66-.509 1.413-.509 2.26 0 1.112.283 2.007.848 2.685a7.01 7.01 0 0 0 2.119 1.695 17.85 17.85 0 0 0 2.798 1.159c.998.32 1.921.687 2.769 1.102.866.395 1.582.885 2.147 1.469.565.584.848 1.366.848 2.345 0 1.225-.452 2.12-1.356 2.685-.886.565-2.073.848-3.561.848-1.187 0-2.138-.151-2.854-.453-.716-.32-1.262-.697-1.639-1.13-.376-.433-.631-.876-.763-1.328-.131-.471-.207-.866-.226-1.187h-1.921Z" mask="url(#a)"/><path fill="#000" d="M59.457 24.175c.523-12.022 5.01-19.601 7.187-21.888-5.226 2.287-11.76 17.641-12.74 24.501-.98 6.86.98 15.028 3.266 23.195 1.83 6.534 1.319 17.548.654 22.215-.545 3.049-1.634 9.409-1.634 10.454 6.815-10.195 8.167-21.888 8.167-27.769 0-4.704-1.089-9.364-1.633-11.107-.762-2.287-2.418-7.579-2.94-10.454-.654-3.593-.327-4.574-.327-9.147Z"/><path fill="#AAA" d="M51.123 28.095C52.99 14.55 62.079 1.193 66.15 0 55.434 3.136 48.19 19.275 47.204 27.442c-.653 3.267-.652 8.145 0 13.067.994 7.514 6.874 18.948 10.127 20.908-3.253-3.92-6.017-17.968-6.193-19.274-.176-1.307-.246-1.634-.503-5.88.032-1.9-.02-4.49.488-8.168Z"/><path fill="url(#b)" d="M66.643 41.163c7.318-4.966 3.049-9.039 0-10.454 5.227.326 7.514 2.94 7.84 4.247.159.633 0 1.96-1.306 3.593-7.514 7.514-21.562 13.068-28.422 14.701 10.127-3.267 12.74-5.88 21.888-12.087Z"/><path fill="url(#c)" d="M61.742 31.035c7.318-4.965 3.05-9.038 0-10.454 5.227.327 7.514 2.94 7.841 4.247.159.634 0 1.96-1.307 3.594-7.513 7.514-21.561 13.067-28.421 14.701 10.127-3.267 12.74-5.88 21.888-12.087Z"/><defs><linearGradient id="b" x1="59.644" x2="59.644" y1="30.709" y2="53.25" gradientUnits="userSpaceOnUse"><stop offset=".474" stop-color="#AAA"/><stop offset="1"/></linearGradient><linearGradient id="c" x1="54.744" x2="54.744" y1="20.581" y2="43.123" gradientUnits="userSpaceOnUse"><stop offset=".536" stop-color="#AAA"/><stop offset="1"/></linearGradient></defs></svg>