<svg width="189" height="34" viewBox="0 0 189 34" fill="none" xmlns="http://www.w3.org/2000/svg">
<mask id="path-1-outside-1_2084_1020" maskUnits="userSpaceOnUse" x="-0.0321655" y="-0.562256" width="189" height="35" fill="black">
<rect fill="white" x="-0.0321655" y="-0.562256" width="189" height="35"/>
<path d="M0.967834 0.985845V32.9585H5.12428V17.0635H19.2836V14.9625H5.12428V3.49798H21.613V0.985845H0.967834Z"/>
<path d="M26.6173 0.985845V20.6262C26.6173 21.8746 26.7391 23.2601 26.9827 24.7826C27.2263 26.2747 27.8049 27.6754 28.7184 28.9847C29.6319 30.2636 30.9869 31.3446 32.7834 32.2277C34.58 33.0803 37.0312 33.5066 40.1372 33.5066C42.086 33.5066 43.8064 33.2021 45.2985 32.5931C46.821 31.9841 48.0846 31.1467 49.0895 30.0809C50.1248 29.0152 50.9013 27.782 51.4189 26.3812C51.9366 24.9501 52.1954 23.4276 52.1954 21.8137V0.985845H50.1857V20.3064C50.1857 20.9764 50.1705 21.6615 50.14 22.3618C50.1096 23.0317 50.0182 23.7169 49.866 24.4172C49.7137 25.0871 49.4701 25.757 49.1352 26.4269C48.8307 27.0968 48.3739 27.7667 47.7649 28.4366C46.6687 29.6242 45.4355 30.4311 44.0652 30.8574C42.695 31.2837 41.2638 31.4969 39.7718 31.4969C38.4928 31.4969 37.351 31.2989 36.3461 30.9031C35.3717 30.5072 34.443 29.9135 33.5599 29.1218C32.8596 28.5128 32.3267 27.9038 31.9613 27.2948C31.5959 26.6857 31.3218 26.092 31.1391 25.5134C30.9564 24.9044 30.8499 24.2954 30.8194 23.6864C30.789 23.0774 30.7737 22.4684 30.7737 21.8594V0.985845H26.6173Z"/>
<path d="M73.1478 32.9585V3.49798H85.3888V0.985845H56.7504V3.49798H68.9914V32.9585H73.1478Z"/>
<path d="M89.9559 0.985845V20.6262C89.9559 21.8746 90.0777 23.2601 90.3213 24.7826C90.5649 26.2747 91.1435 27.6754 92.057 28.9847C92.9705 30.2636 94.3255 31.3446 96.1221 32.2277C97.9186 33.0803 100.37 33.5066 103.476 33.5066C105.425 33.5066 107.145 33.2021 108.637 32.5931C110.16 31.9841 111.423 31.1467 112.428 30.0809C113.463 29.0152 114.24 27.782 114.758 26.3812C115.275 24.9501 115.534 23.4276 115.534 21.8137V0.985845H113.524V20.3064C113.524 20.9764 113.509 21.6615 113.479 22.3618C113.448 23.0317 113.357 23.7169 113.205 24.4172C113.052 25.0871 112.809 25.757 112.474 26.4269C112.169 27.0968 111.713 27.7667 111.104 28.4366C110.007 29.6242 108.774 30.4311 107.404 30.8574C106.034 31.2837 104.602 31.4969 103.11 31.4969C101.831 31.4969 100.69 31.2989 99.6847 30.9031C98.7103 30.5072 97.7816 29.9135 96.8986 29.1218C96.1982 28.5128 95.6653 27.9038 95.2999 27.2948C94.9345 26.6857 94.6605 26.092 94.4778 25.5134C94.2951 24.9044 94.1885 24.2954 94.158 23.6864C94.1276 23.0774 94.1124 22.4684 94.1124 21.8594V0.985845H89.9559Z"/>
<path d="M122.235 0.985845V32.9585H126.392V18.8448H128.402C129.254 18.8448 129.955 18.921 130.503 19.0732C131.081 19.2255 131.599 19.4843 132.056 19.8497C132.512 20.2151 132.939 20.6871 133.335 21.2656C133.73 21.8442 134.202 22.5598 134.75 23.4124L138.359 28.7564C138.816 29.4567 139.257 30.0962 139.683 30.6747C140.14 31.2533 140.627 31.7557 141.145 32.182C141.663 32.5779 142.241 32.8976 142.881 33.1412C143.551 33.3848 144.342 33.5066 145.256 33.5066C145.926 33.5066 146.474 33.4761 146.9 33.4152C147.326 33.3543 147.753 33.2021 148.179 32.9585V31.2685C148.027 31.2989 147.874 31.3294 147.722 31.3598C147.57 31.3598 147.418 31.3598 147.265 31.3598C146.626 31.3598 146.063 31.2685 145.575 31.0858C145.088 30.9031 144.632 30.6443 144.205 30.3093C143.779 29.9439 143.368 29.5176 142.972 29.0304C142.576 28.5128 142.165 27.9342 141.739 27.2948C140.46 25.4373 139.47 23.9605 138.77 22.8643C138.07 21.7376 137.506 20.8698 137.08 20.2608C136.684 19.6518 136.349 19.2102 136.075 18.9362C135.831 18.6621 135.527 18.4338 135.162 18.2511L134.705 18.0227V17.84C136.166 17.7486 137.415 17.4289 138.45 16.8808C139.516 16.3327 140.384 15.6476 141.054 14.8254C141.724 14.0033 142.211 13.1202 142.515 12.1763C142.82 11.2019 142.972 10.2579 142.972 9.3444C142.972 8.52225 142.805 7.62397 142.47 6.64957C142.165 5.67516 141.617 4.77689 140.825 3.95473C140.064 3.10213 139.013 2.40178 137.674 1.85367C136.334 1.27512 134.644 0.985845 132.604 0.985845H122.235ZM126.392 2.99555H131.005C132.162 2.99555 133.197 3.16303 134.111 3.49798C135.055 3.83293 135.862 4.30491 136.532 4.91391C137.202 5.49246 137.704 6.19282 138.039 7.01497C138.404 7.83712 138.587 8.7354 138.587 9.70981C138.587 10.532 138.42 11.3693 138.085 12.2219C137.78 13.0441 137.308 13.8053 136.669 14.5057C136.029 15.1756 135.238 15.7237 134.294 16.15C133.38 16.5763 132.314 16.7895 131.096 16.7895H126.392V2.99555Z"/>
<path d="M153.559 0.985845V32.9585H157.715V0.985845H153.559Z"/>
<path d="M164.435 24.874C164.496 26.1833 164.831 27.3709 165.44 28.4366C166.08 29.5024 166.932 30.4159 167.998 31.1771C169.094 31.9079 170.373 32.4865 171.835 32.9128C173.296 33.3087 174.895 33.5066 176.631 33.5066C178.397 33.5066 179.98 33.2934 181.381 32.8671C182.812 32.4408 184.03 31.8318 185.035 31.0401C186.04 30.2484 186.816 29.2892 187.364 28.1626C187.912 27.0359 188.186 25.7875 188.186 24.4172C188.186 22.5293 187.714 20.9916 186.771 19.804C185.827 18.586 184.639 17.5812 183.208 16.7895C181.807 15.9673 180.269 15.2822 178.595 14.7341C176.95 14.186 175.413 13.6074 173.981 12.9984C172.581 12.3894 171.408 11.6891 170.465 10.8974C169.521 10.1057 169.049 9.05513 169.049 7.74577C169.049 7.01497 169.201 6.32984 169.505 5.69039C169.84 5.05094 170.312 4.50283 170.921 4.04608C171.561 3.55888 172.337 3.17825 173.251 2.9042C174.164 2.5997 175.215 2.44745 176.402 2.44745C178.382 2.44745 180.056 2.87375 181.427 3.72636C182.827 4.54851 183.649 5.85786 183.893 7.65442H186.999C186.816 6.52777 186.405 5.52291 185.766 4.63986C185.126 3.72636 184.319 2.9651 183.345 2.3561C182.37 1.71665 181.259 1.24467 180.011 0.94017C178.793 0.605219 177.514 0.437744 176.174 0.437744C174.773 0.437744 173.433 0.620444 172.154 0.985845C170.906 1.35125 169.795 1.88412 168.82 2.58448C167.876 3.28483 167.115 4.16788 166.536 5.23364C165.988 6.29939 165.714 7.5174 165.714 8.88765C165.714 10.6842 166.171 12.1306 167.085 13.2268C167.998 14.323 169.14 15.2365 170.51 15.9673C171.911 16.6981 173.418 17.3223 175.032 17.84C176.646 18.3576 178.138 18.9514 179.508 19.6213C180.909 20.2608 182.066 21.0525 182.979 21.9964C183.893 22.9404 184.35 24.2041 184.35 25.7875C184.35 27.7667 183.619 29.2131 182.157 30.1266C180.726 31.0401 178.808 31.4969 176.402 31.4969C174.484 31.4969 172.946 31.2533 171.789 30.7661C170.632 30.2484 169.749 29.6394 169.14 28.9391C168.531 28.2387 168.12 27.5231 167.907 26.7923C167.694 26.0311 167.572 25.3916 167.541 24.874H164.435Z"/>
</mask>
<path d="M0.967834 0.985845V32.9585H5.12428V17.0635H19.2836V14.9625H5.12428V3.49798H21.613V0.985845H0.967834Z" fill="black"/>
<path d="M26.6173 0.985845V20.6262C26.6173 21.8746 26.7391 23.2601 26.9827 24.7826C27.2263 26.2747 27.8049 27.6754 28.7184 28.9847C29.6319 30.2636 30.9869 31.3446 32.7834 32.2277C34.58 33.0803 37.0312 33.5066 40.1372 33.5066C42.086 33.5066 43.8064 33.2021 45.2985 32.5931C46.821 31.9841 48.0846 31.1467 49.0895 30.0809C50.1248 29.0152 50.9013 27.782 51.4189 26.3812C51.9366 24.9501 52.1954 23.4276 52.1954 21.8137V0.985845H50.1857V20.3064C50.1857 20.9764 50.1705 21.6615 50.14 22.3618C50.1096 23.0317 50.0182 23.7169 49.866 24.4172C49.7137 25.0871 49.4701 25.757 49.1352 26.4269C48.8307 27.0968 48.3739 27.7667 47.7649 28.4366C46.6687 29.6242 45.4355 30.4311 44.0652 30.8574C42.695 31.2837 41.2638 31.4969 39.7718 31.4969C38.4928 31.4969 37.351 31.2989 36.3461 30.9031C35.3717 30.5072 34.443 29.9135 33.5599 29.1218C32.8596 28.5128 32.3267 27.9038 31.9613 27.2948C31.5959 26.6857 31.3218 26.092 31.1391 25.5134C30.9564 24.9044 30.8499 24.2954 30.8194 23.6864C30.789 23.0774 30.7737 22.4684 30.7737 21.8594V0.985845H26.6173Z" fill="black"/>
<path d="M73.1478 32.9585V3.49798H85.3888V0.985845H56.7504V3.49798H68.9914V32.9585H73.1478Z" fill="black"/>
<path d="M89.9559 0.985845V20.6262C89.9559 21.8746 90.0777 23.2601 90.3213 24.7826C90.5649 26.2747 91.1435 27.6754 92.057 28.9847C92.9705 30.2636 94.3255 31.3446 96.1221 32.2277C97.9186 33.0803 100.37 33.5066 103.476 33.5066C105.425 33.5066 107.145 33.2021 108.637 32.5931C110.16 31.9841 111.423 31.1467 112.428 30.0809C113.463 29.0152 114.24 27.782 114.758 26.3812C115.275 24.9501 115.534 23.4276 115.534 21.8137V0.985845H113.524V20.3064C113.524 20.9764 113.509 21.6615 113.479 22.3618C113.448 23.0317 113.357 23.7169 113.205 24.4172C113.052 25.0871 112.809 25.757 112.474 26.4269C112.169 27.0968 111.713 27.7667 111.104 28.4366C110.007 29.6242 108.774 30.4311 107.404 30.8574C106.034 31.2837 104.602 31.4969 103.11 31.4969C101.831 31.4969 100.69 31.2989 99.6847 30.9031C98.7103 30.5072 97.7816 29.9135 96.8986 29.1218C96.1982 28.5128 95.6653 27.9038 95.2999 27.2948C94.9345 26.6857 94.6605 26.092 94.4778 25.5134C94.2951 24.9044 94.1885 24.2954 94.158 23.6864C94.1276 23.0774 94.1124 22.4684 94.1124 21.8594V0.985845H89.9559Z" fill="black"/>
<path d="M122.235 0.985845V32.9585H126.392V18.8448H128.402C129.254 18.8448 129.955 18.921 130.503 19.0732C131.081 19.2255 131.599 19.4843 132.056 19.8497C132.512 20.2151 132.939 20.6871 133.335 21.2656C133.73 21.8442 134.202 22.5598 134.75 23.4124L138.359 28.7564C138.816 29.4567 139.257 30.0962 139.683 30.6747C140.14 31.2533 140.627 31.7557 141.145 32.182C141.663 32.5779 142.241 32.8976 142.881 33.1412C143.551 33.3848 144.342 33.5066 145.256 33.5066C145.926 33.5066 146.474 33.4761 146.9 33.4152C147.326 33.3543 147.753 33.2021 148.179 32.9585V31.2685C148.027 31.2989 147.874 31.3294 147.722 31.3598C147.57 31.3598 147.418 31.3598 147.265 31.3598C146.626 31.3598 146.063 31.2685 145.575 31.0858C145.088 30.9031 144.632 30.6443 144.205 30.3093C143.779 29.9439 143.368 29.5176 142.972 29.0304C142.576 28.5128 142.165 27.9342 141.739 27.2948C140.46 25.4373 139.47 23.9605 138.77 22.8643C138.07 21.7376 137.506 20.8698 137.08 20.2608C136.684 19.6518 136.349 19.2102 136.075 18.9362C135.831 18.6621 135.527 18.4338 135.162 18.2511L134.705 18.0227V17.84C136.166 17.7486 137.415 17.4289 138.45 16.8808C139.516 16.3327 140.384 15.6476 141.054 14.8254C141.724 14.0033 142.211 13.1202 142.515 12.1763C142.82 11.2019 142.972 10.2579 142.972 9.3444C142.972 8.52225 142.805 7.62397 142.47 6.64957C142.165 5.67516 141.617 4.77689 140.825 3.95473C140.064 3.10213 139.013 2.40178 137.674 1.85367C136.334 1.27512 134.644 0.985845 132.604 0.985845H122.235ZM126.392 2.99555H131.005C132.162 2.99555 133.197 3.16303 134.111 3.49798C135.055 3.83293 135.862 4.30491 136.532 4.91391C137.202 5.49246 137.704 6.19282 138.039 7.01497C138.404 7.83712 138.587 8.7354 138.587 9.70981C138.587 10.532 138.42 11.3693 138.085 12.2219C137.78 13.0441 137.308 13.8053 136.669 14.5057C136.029 15.1756 135.238 15.7237 134.294 16.15C133.38 16.5763 132.314 16.7895 131.096 16.7895H126.392V2.99555Z" fill="black"/>
<path d="M153.559 0.985845V32.9585H157.715V0.985845H153.559Z" fill="black"/>
<path d="M164.435 24.874C164.496 26.1833 164.831 27.3709 165.44 28.4366C166.08 29.5024 166.932 30.4159 167.998 31.1771C169.094 31.9079 170.373 32.4865 171.835 32.9128C173.296 33.3087 174.895 33.5066 176.631 33.5066C178.397 33.5066 179.98 33.2934 181.381 32.8671C182.812 32.4408 184.03 31.8318 185.035 31.0401C186.04 30.2484 186.816 29.2892 187.364 28.1626C187.912 27.0359 188.186 25.7875 188.186 24.4172C188.186 22.5293 187.714 20.9916 186.771 19.804C185.827 18.586 184.639 17.5812 183.208 16.7895C181.807 15.9673 180.269 15.2822 178.595 14.7341C176.95 14.186 175.413 13.6074 173.981 12.9984C172.581 12.3894 171.408 11.6891 170.465 10.8974C169.521 10.1057 169.049 9.05513 169.049 7.74577C169.049 7.01497 169.201 6.32984 169.505 5.69039C169.84 5.05094 170.312 4.50283 170.921 4.04608C171.561 3.55888 172.337 3.17825 173.251 2.9042C174.164 2.5997 175.215 2.44745 176.402 2.44745C178.382 2.44745 180.056 2.87375 181.427 3.72636C182.827 4.54851 183.649 5.85786 183.893 7.65442H186.999C186.816 6.52777 186.405 5.52291 185.766 4.63986C185.126 3.72636 184.319 2.9651 183.345 2.3561C182.37 1.71665 181.259 1.24467 180.011 0.94017C178.793 0.605219 177.514 0.437744 176.174 0.437744C174.773 0.437744 173.433 0.620444 172.154 0.985845C170.906 1.35125 169.795 1.88412 168.82 2.58448C167.876 3.28483 167.115 4.16788 166.536 5.23364C165.988 6.29939 165.714 7.5174 165.714 8.88765C165.714 10.6842 166.171 12.1306 167.085 13.2268C167.998 14.323 169.14 15.2365 170.51 15.9673C171.911 16.6981 173.418 17.3223 175.032 17.84C176.646 18.3576 178.138 18.9514 179.508 19.6213C180.909 20.2608 182.066 21.0525 182.979 21.9964C183.893 22.9404 184.35 24.2041 184.35 25.7875C184.35 27.7667 183.619 29.2131 182.157 30.1266C180.726 31.0401 178.808 31.4969 176.402 31.4969C174.484 31.4969 172.946 31.2533 171.789 30.7661C170.632 30.2484 169.749 29.6394 169.14 28.9391C168.531 28.2387 168.12 27.5231 167.907 26.7923C167.694 26.0311 167.572 25.3916 167.541 24.874H164.435Z" fill="black"/>
<path d="M0.967834 0.985845V32.9585H5.12428V17.0635H19.2836V14.9625H5.12428V3.49798H21.613V0.985845H0.967834Z" stroke="black" stroke-width="0.5" mask="url(#path-1-outside-1_2084_1020)"/>
<path d="M26.6173 0.985845V20.6262C26.6173 21.8746 26.7391 23.2601 26.9827 24.7826C27.2263 26.2747 27.8049 27.6754 28.7184 28.9847C29.6319 30.2636 30.9869 31.3446 32.7834 32.2277C34.58 33.0803 37.0312 33.5066 40.1372 33.5066C42.086 33.5066 43.8064 33.2021 45.2985 32.5931C46.821 31.9841 48.0846 31.1467 49.0895 30.0809C50.1248 29.0152 50.9013 27.782 51.4189 26.3812C51.9366 24.9501 52.1954 23.4276 52.1954 21.8137V0.985845H50.1857V20.3064C50.1857 20.9764 50.1705 21.6615 50.14 22.3618C50.1096 23.0317 50.0182 23.7169 49.866 24.4172C49.7137 25.0871 49.4701 25.757 49.1352 26.4269C48.8307 27.0968 48.3739 27.7667 47.7649 28.4366C46.6687 29.6242 45.4355 30.4311 44.0652 30.8574C42.695 31.2837 41.2638 31.4969 39.7718 31.4969C38.4928 31.4969 37.351 31.2989 36.3461 30.9031C35.3717 30.5072 34.443 29.9135 33.5599 29.1218C32.8596 28.5128 32.3267 27.9038 31.9613 27.2948C31.5959 26.6857 31.3218 26.092 31.1391 25.5134C30.9564 24.9044 30.8499 24.2954 30.8194 23.6864C30.789 23.0774 30.7737 22.4684 30.7737 21.8594V0.985845H26.6173Z" stroke="black" stroke-width="0.5" mask="url(#path-1-outside-1_2084_1020)"/>
<path d="M73.1478 32.9585V3.49798H85.3888V0.985845H56.7504V3.49798H68.9914V32.9585H73.1478Z" stroke="black" stroke-width="0.5" mask="url(#path-1-outside-1_2084_1020)"/>
<path d="M89.9559 0.985845V20.6262C89.9559 21.8746 90.0777 23.2601 90.3213 24.7826C90.5649 26.2747 91.1435 27.6754 92.057 28.9847C92.9705 30.2636 94.3255 31.3446 96.1221 32.2277C97.9186 33.0803 100.37 33.5066 103.476 33.5066C105.425 33.5066 107.145 33.2021 108.637 32.5931C110.16 31.9841 111.423 31.1467 112.428 30.0809C113.463 29.0152 114.24 27.782 114.758 26.3812C115.275 24.9501 115.534 23.4276 115.534 21.8137V0.985845H113.524V20.3064C113.524 20.9764 113.509 21.6615 113.479 22.3618C113.448 23.0317 113.357 23.7169 113.205 24.4172C113.052 25.0871 112.809 25.757 112.474 26.4269C112.169 27.0968 111.713 27.7667 111.104 28.4366C110.007 29.6242 108.774 30.4311 107.404 30.8574C106.034 31.2837 104.602 31.4969 103.11 31.4969C101.831 31.4969 100.69 31.2989 99.6847 30.9031C98.7103 30.5072 97.7816 29.9135 96.8986 29.1218C96.1982 28.5128 95.6653 27.9038 95.2999 27.2948C94.9345 26.6857 94.6605 26.092 94.4778 25.5134C94.2951 24.9044 94.1885 24.2954 94.158 23.6864C94.1276 23.0774 94.1124 22.4684 94.1124 21.8594V0.985845H89.9559Z" stroke="black" stroke-width="0.5" mask="url(#path-1-outside-1_2084_1020)"/>
<path d="M122.235 0.985845V32.9585H126.392V18.8448H128.402C129.254 18.8448 129.955 18.921 130.503 19.0732C131.081 19.2255 131.599 19.4843 132.056 19.8497C132.512 20.2151 132.939 20.6871 133.335 21.2656C133.73 21.8442 134.202 22.5598 134.75 23.4124L138.359 28.7564C138.816 29.4567 139.257 30.0962 139.683 30.6747C140.14 31.2533 140.627 31.7557 141.145 32.182C141.663 32.5779 142.241 32.8976 142.881 33.1412C143.551 33.3848 144.342 33.5066 145.256 33.5066C145.926 33.5066 146.474 33.4761 146.9 33.4152C147.326 33.3543 147.753 33.2021 148.179 32.9585V31.2685C148.027 31.2989 147.874 31.3294 147.722 31.3598C147.57 31.3598 147.418 31.3598 147.265 31.3598C146.626 31.3598 146.063 31.2685 145.575 31.0858C145.088 30.9031 144.632 30.6443 144.205 30.3093C143.779 29.9439 143.368 29.5176 142.972 29.0304C142.576 28.5128 142.165 27.9342 141.739 27.2948C140.46 25.4373 139.47 23.9605 138.77 22.8643C138.07 21.7376 137.506 20.8698 137.08 20.2608C136.684 19.6518 136.349 19.2102 136.075 18.9362C135.831 18.6621 135.527 18.4338 135.162 18.2511L134.705 18.0227V17.84C136.166 17.7486 137.415 17.4289 138.45 16.8808C139.516 16.3327 140.384 15.6476 141.054 14.8254C141.724 14.0033 142.211 13.1202 142.515 12.1763C142.82 11.2019 142.972 10.2579 142.972 9.3444C142.972 8.52225 142.805 7.62397 142.47 6.64957C142.165 5.67516 141.617 4.77689 140.825 3.95473C140.064 3.10213 139.013 2.40178 137.674 1.85367C136.334 1.27512 134.644 0.985845 132.604 0.985845H122.235ZM126.392 2.99555H131.005C132.162 2.99555 133.197 3.16303 134.111 3.49798C135.055 3.83293 135.862 4.30491 136.532 4.91391C137.202 5.49246 137.704 6.19282 138.039 7.01497C138.404 7.83712 138.587 8.7354 138.587 9.70981C138.587 10.532 138.42 11.3693 138.085 12.2219C137.78 13.0441 137.308 13.8053 136.669 14.5057C136.029 15.1756 135.238 15.7237 134.294 16.15C133.38 16.5763 132.314 16.7895 131.096 16.7895H126.392V2.99555Z" stroke="black" stroke-width="0.5" mask="url(#path-1-outside-1_2084_1020)"/>
<path d="M153.559 0.985845V32.9585H157.715V0.985845H153.559Z" stroke="black" stroke-width="0.5" mask="url(#path-1-outside-1_2084_1020)"/>
<path d="M164.435 24.874C164.496 26.1833 164.831 27.3709 165.44 28.4366C166.08 29.5024 166.932 30.4159 167.998 31.1771C169.094 31.9079 170.373 32.4865 171.835 32.9128C173.296 33.3087 174.895 33.5066 176.631 33.5066C178.397 33.5066 179.98 33.2934 181.381 32.8671C182.812 32.4408 184.03 31.8318 185.035 31.0401C186.04 30.2484 186.816 29.2892 187.364 28.1626C187.912 27.0359 188.186 25.7875 188.186 24.4172C188.186 22.5293 187.714 20.9916 186.771 19.804C185.827 18.586 184.639 17.5812 183.208 16.7895C181.807 15.9673 180.269 15.2822 178.595 14.7341C176.95 14.186 175.413 13.6074 173.981 12.9984C172.581 12.3894 171.408 11.6891 170.465 10.8974C169.521 10.1057 169.049 9.05513 169.049 7.74577C169.049 7.01497 169.201 6.32984 169.505 5.69039C169.84 5.05094 170.312 4.50283 170.921 4.04608C171.561 3.55888 172.337 3.17825 173.251 2.9042C174.164 2.5997 175.215 2.44745 176.402 2.44745C178.382 2.44745 180.056 2.87375 181.427 3.72636C182.827 4.54851 183.649 5.85786 183.893 7.65442H186.999C186.816 6.52777 186.405 5.52291 185.766 4.63986C185.126 3.72636 184.319 2.9651 183.345 2.3561C182.37 1.71665 181.259 1.24467 180.011 0.94017C178.793 0.605219 177.514 0.437744 176.174 0.437744C174.773 0.437744 173.433 0.620444 172.154 0.985845C170.906 1.35125 169.795 1.88412 168.82 2.58448C167.876 3.28483 167.115 4.16788 166.536 5.23364C165.988 6.29939 165.714 7.5174 165.714 8.88765C165.714 10.6842 166.171 12.1306 167.085 13.2268C167.998 14.323 169.14 15.2365 170.51 15.9673C171.911 16.6981 173.418 17.3223 175.032 17.84C176.646 18.3576 178.138 18.9514 179.508 19.6213C180.909 20.2608 182.066 21.0525 182.979 21.9964C183.893 22.9404 184.35 24.2041 184.35 25.7875C184.35 27.7667 183.619 29.2131 182.157 30.1266C180.726 31.0401 178.808 31.4969 176.402 31.4969C174.484 31.4969 172.946 31.2533 171.789 30.7661C170.632 30.2484 169.749 29.6394 169.14 28.9391C168.531 28.2387 168.12 27.5231 167.907 26.7923C167.694 26.0311 167.572 25.3916 167.541 24.874H164.435Z" stroke="black" stroke-width="0.5" mask="url(#path-1-outside-1_2084_1020)"/>
</svg>
