<svg width="310" height="738" viewBox="0 0 310 738" fill="none" xmlns="http://www.w3.org/2000/svg">
<path d="M174.901 215.98C182.857 108.229 219.446 41.6719 238.814 21.336C192.34 41.6719 134.229 178.213 125.513 239.221C116.798 300.229 134.229 372.858 154.565 445.486C170.833 503.589 166.293 601.534 160.375 643.036C155.533 670.15 145.849 726.704 145.849 736C206.451 645.342 218.478 541.356 218.478 489.063C218.478 447.229 208.794 405.783 203.952 390.289C197.173 369.953 182.454 322.889 177.806 297.324C171.996 265.368 171.897 256.651 174.901 215.98Z" stroke="#8D8D8D" stroke-width="0.863972"/>
<path d="M100.787 250.842C117.398 130.387 198.219 11.6107 234.423 1.00001C139.127 28.8893 74.695 172.403 65.9359 245.032C60.1335 274.083 60.1445 317.46 65.9359 361.237C74.7755 428.055 127.068 529.735 155.995 547.166C127.068 512.304 102.488 387.383 100.922 375.763C99.3557 364.142 98.739 361.237 96.4506 323.47C96.7391 306.586 96.2762 283.552 100.787 250.842Z" stroke="#8D8D8D" stroke-width="0.863972"/>
<path d="M238.802 367.047C303.877 322.889 265.916 286.672 238.802 274.083C285.284 276.988 305.62 300.229 308.525 311.85C309.934 317.486 308.525 329.281 296.905 343.806C230.086 410.624 105.165 460.012 44.1576 474.537C134.217 445.486 157.458 422.245 238.802 367.047Z" stroke="#8D8D8D" stroke-width="0.863972"/>
<path d="M195.227 276.988C260.302 232.83 222.342 196.613 195.227 184.024C241.709 186.929 262.045 210.17 264.95 221.791C266.36 227.428 264.95 239.222 253.33 253.747C186.512 320.566 61.5907 369.953 0.582825 384.479C90.6421 355.427 113.883 332.186 195.227 276.988Z" stroke="#8D8D8D" stroke-width="0.863972"/>
</svg>
