<svg xmlns="http://www.w3.org/2000/svg" width="189" height="34" fill="none"><mask id="a" width="189" height="35" x="-.032" y="-.562" fill="#000" maskUnits="userSpaceOnUse"><path fill="#fff" d="M-.032-.562h189v35h-189z"/><path d="M.968.986v31.973h4.156V17.063h14.16v-2.1H5.124V3.498h16.489V.986H.968ZM26.617.986v19.64c0 1.249.122 2.634.366 4.157.243 1.492.822 2.892 1.735 4.202.914 1.279 2.269 2.36 4.065 3.243 1.797.852 4.248 1.279 7.354 1.279 1.949 0 3.67-.305 5.161-.914 1.523-.609 2.787-1.446 3.791-2.512a10.448 10.448 0 0 0 2.33-3.7c.518-1.43.776-2.953.776-4.567V.986h-2.01v19.32c0 .67-.015 1.355-.045 2.056-.03.67-.122 1.355-.274 2.055a8.91 8.91 0 0 1-.73 2.01c-.305.67-.762 1.34-1.371 2.01-1.096 1.187-2.33 1.994-3.7 2.42-1.37.427-2.801.64-4.293.64-1.28 0-2.421-.198-3.426-.594-.974-.396-1.903-.99-2.786-1.781-.7-.61-1.233-1.218-1.599-1.827a8.396 8.396 0 0 1-.822-1.782 7.676 7.676 0 0 1-.32-1.827 36.64 36.64 0 0 1-.045-1.827V.986h-4.157ZM73.148 32.959V3.498h12.24V.986H56.75v2.512h12.241v29.46h4.157ZM89.956.986v19.64c0 1.249.122 2.634.365 4.157.244 1.492.823 2.892 1.736 4.202.913 1.279 2.269 2.36 4.065 3.243 1.797.852 4.248 1.279 7.354 1.279 1.949 0 3.669-.305 5.161-.914 1.523-.609 2.786-1.446 3.791-2.512a10.46 10.46 0 0 0 2.33-3.7c.517-1.43.776-2.953.776-4.567V.986h-2.01v19.32c0 .67-.015 1.355-.045 2.056-.031.67-.122 1.355-.274 2.055a8.94 8.94 0 0 1-.731 2.01c-.305.67-.761 1.34-1.37 2.01-1.097 1.187-2.33 1.994-3.7 2.42-1.37.427-2.802.64-4.294.64-1.279 0-2.42-.198-3.425-.594-.975-.396-1.903-.99-2.786-1.781-.7-.61-1.234-1.218-1.6-1.827a8.396 8.396 0 0 1-.821-1.782 7.676 7.676 0 0 1-.32-1.827 36.64 36.64 0 0 1-.046-1.827V.986h-4.156ZM122.235.986v31.973h4.157V18.845h2.01c.852 0 1.553.076 2.101.228a4.152 4.152 0 0 1 1.553.777c.456.365.883.837 1.279 1.416.395.578.867 1.294 1.415 2.146l3.609 5.344c.457.7.898 1.34 1.324 1.919a9.833 9.833 0 0 0 1.462 1.507 6.854 6.854 0 0 0 1.736.96c.67.243 1.461.365 2.375.365.67 0 1.218-.03 1.644-.092.426-.06.853-.213 1.279-.456v-1.69l-.457.09h-.457c-.639 0-1.202-.09-1.69-.273a5.13 5.13 0 0 1-1.37-.777 9.924 9.924 0 0 1-1.233-1.279 32.739 32.739 0 0 1-1.233-1.735 162.839 162.839 0 0 1-2.969-4.43 60.485 60.485 0 0 0-1.69-2.604c-.396-.61-.731-1.05-1.005-1.325a3.005 3.005 0 0 0-.913-.685l-.457-.228v-.183c1.461-.091 2.71-.411 3.745-.96 1.066-.547 1.934-1.232 2.604-2.055a8.112 8.112 0 0 0 1.461-2.649 9.46 9.46 0 0 0 .457-2.832c0-.822-.167-1.72-.502-2.694-.305-.975-.853-1.873-1.645-2.695-.761-.853-1.812-1.553-3.151-2.101-1.34-.579-3.03-.868-5.07-.868h-10.369Zm4.157 2.01h4.613c1.157 0 2.192.167 3.106.502.944.335 1.751.807 2.421 1.416a5.458 5.458 0 0 1 1.507 2.101c.365.822.548 1.72.548 2.695 0 .822-.167 1.66-.502 2.512a6.978 6.978 0 0 1-1.416 2.284c-.64.67-1.431 1.218-2.375 1.644-.914.426-1.98.64-3.198.64h-4.704V2.995ZM153.559.986v31.973h4.156V.986h-4.156ZM164.435 24.874c.061 1.31.396 2.497 1.005 3.563a9.117 9.117 0 0 0 2.558 2.74c1.096.73 2.375 1.31 3.837 1.736 1.461.396 3.06.594 4.796.594 1.766 0 3.349-.214 4.75-.64 1.431-.426 2.649-1.035 3.654-1.827a8.178 8.178 0 0 0 2.329-2.877c.548-1.127.822-2.375.822-3.746 0-1.888-.472-3.425-1.415-4.613-.944-1.218-2.132-2.223-3.563-3.014a23.576 23.576 0 0 0-4.613-2.056 61.35 61.35 0 0 1-4.614-1.736c-1.4-.609-2.573-1.309-3.516-2.1-.944-.792-1.416-1.843-1.416-3.152 0-.731.152-1.416.456-2.056a4.863 4.863 0 0 1 1.416-1.644c.64-.487 1.416-.868 2.33-1.142.913-.304 1.964-.457 3.151-.457 1.98 0 3.654.427 5.025 1.28 1.4.822 2.222 2.13 2.466 3.927h3.106a6.971 6.971 0 0 0-1.233-3.014 8.277 8.277 0 0 0-2.421-2.284c-.975-.64-2.086-1.111-3.334-1.416a14.408 14.408 0 0 0-3.837-.502c-1.401 0-2.741.182-4.02.548-1.248.365-2.359.898-3.334 1.598a8.014 8.014 0 0 0-2.284 2.65c-.548 1.065-.822 2.283-.822 3.654 0 1.796.457 3.243 1.371 4.339.913 1.096 2.055 2.01 3.425 2.74a28.727 28.727 0 0 0 4.522 1.873 33.403 33.403 0 0 1 4.476 1.781c1.401.64 2.558 1.431 3.471 2.375.914.944 1.371 2.208 1.371 3.792 0 1.979-.731 3.425-2.193 4.339-1.431.913-3.349 1.37-5.755 1.37-1.918 0-3.456-.244-4.613-.73-1.157-.519-2.04-1.128-2.649-1.828-.609-.7-1.02-1.416-1.233-2.147-.213-.76-.335-1.4-.366-1.918h-3.106Z"/></mask><path fill="#000" d="M.968.986v31.973h4.156V17.063h14.16v-2.1H5.124V3.498h16.489V.986H.968ZM26.617.986v19.64c0 1.249.122 2.634.366 4.157.243 1.492.822 2.892 1.735 4.202.914 1.279 2.269 2.36 4.065 3.243 1.797.852 4.248 1.279 7.354 1.279 1.949 0 3.67-.305 5.161-.914 1.523-.609 2.787-1.446 3.791-2.512a10.448 10.448 0 0 0 2.33-3.7c.518-1.43.776-2.953.776-4.567V.986h-2.01v19.32c0 .67-.015 1.355-.045 2.056-.03.67-.122 1.355-.274 2.055a8.91 8.91 0 0 1-.73 2.01c-.305.67-.762 1.34-1.371 2.01-1.096 1.187-2.33 1.994-3.7 2.42-1.37.427-2.801.64-4.293.64-1.28 0-2.421-.198-3.426-.594-.974-.396-1.903-.99-2.786-1.781-.7-.61-1.233-1.218-1.599-1.827a8.396 8.396 0 0 1-.822-1.782 7.676 7.676 0 0 1-.32-1.827 36.64 36.64 0 0 1-.045-1.827V.986h-4.157ZM73.148 32.959V3.498h12.24V.986H56.75v2.512h12.241v29.46h4.157ZM89.956.986v19.64c0 1.249.122 2.634.365 4.157.244 1.492.823 2.892 1.736 4.202.913 1.279 2.269 2.36 4.065 3.243 1.797.852 4.248 1.279 7.354 1.279 1.949 0 3.669-.305 5.161-.914 1.523-.609 2.786-1.446 3.791-2.512a10.46 10.46 0 0 0 2.33-3.7c.517-1.43.776-2.953.776-4.567V.986h-2.01v19.32c0 .67-.015 1.355-.045 2.056-.031.67-.122 1.355-.274 2.055a8.94 8.94 0 0 1-.731 2.01c-.305.67-.761 1.34-1.37 2.01-1.097 1.187-2.33 1.994-3.7 2.42-1.37.427-2.802.64-4.294.64-1.279 0-2.42-.198-3.425-.594-.975-.396-1.903-.99-2.786-1.781-.7-.61-1.234-1.218-1.6-1.827a8.396 8.396 0 0 1-.821-1.782 7.676 7.676 0 0 1-.32-1.827 36.64 36.64 0 0 1-.046-1.827V.986h-4.156ZM122.235.986v31.973h4.157V18.845h2.01c.852 0 1.553.076 2.101.228a4.152 4.152 0 0 1 1.553.777c.456.365.883.837 1.279 1.416.395.578.867 1.294 1.415 2.146l3.609 5.344c.457.7.898 1.34 1.324 1.919a9.833 9.833 0 0 0 1.462 1.507 6.854 6.854 0 0 0 1.736.96c.67.243 1.461.365 2.375.365.67 0 1.218-.03 1.644-.092.426-.06.853-.213 1.279-.456v-1.69l-.457.09h-.457c-.639 0-1.202-.09-1.69-.273a5.13 5.13 0 0 1-1.37-.777 9.924 9.924 0 0 1-1.233-1.279 32.739 32.739 0 0 1-1.233-1.735 162.839 162.839 0 0 1-2.969-4.43 60.485 60.485 0 0 0-1.69-2.604c-.396-.61-.731-1.05-1.005-1.325a3.005 3.005 0 0 0-.913-.685l-.457-.228v-.183c1.461-.091 2.71-.411 3.745-.96 1.066-.547 1.934-1.232 2.604-2.055a8.112 8.112 0 0 0 1.461-2.649 9.46 9.46 0 0 0 .457-2.832c0-.822-.167-1.72-.502-2.694-.305-.975-.853-1.873-1.645-2.695-.761-.853-1.812-1.553-3.151-2.101-1.34-.579-3.03-.868-5.07-.868h-10.369Zm4.157 2.01h4.613c1.157 0 2.192.167 3.106.502.944.335 1.751.807 2.421 1.416a5.458 5.458 0 0 1 1.507 2.101c.365.822.548 1.72.548 2.695 0 .822-.167 1.66-.502 2.512a6.978 6.978 0 0 1-1.416 2.284c-.64.67-1.431 1.218-2.375 1.644-.914.426-1.98.64-3.198.64h-4.704V2.995ZM153.559.986v31.973h4.156V.986h-4.156ZM164.435 24.874c.061 1.31.396 2.497 1.005 3.563a9.117 9.117 0 0 0 2.558 2.74c1.096.73 2.375 1.31 3.837 1.736 1.461.396 3.06.594 4.796.594 1.766 0 3.349-.214 4.75-.64 1.431-.426 2.649-1.035 3.654-1.827a8.178 8.178 0 0 0 2.329-2.877c.548-1.127.822-2.375.822-3.746 0-1.888-.472-3.425-1.415-4.613-.944-1.218-2.132-2.223-3.563-3.014a23.576 23.576 0 0 0-4.613-2.056 61.35 61.35 0 0 1-4.614-1.736c-1.4-.609-2.573-1.309-3.516-2.1-.944-.792-1.416-1.843-1.416-3.152 0-.731.152-1.416.456-2.056a4.863 4.863 0 0 1 1.416-1.644c.64-.487 1.416-.868 2.33-1.142.913-.304 1.964-.457 3.151-.457 1.98 0 3.654.427 5.025 1.28 1.4.822 2.222 2.13 2.466 3.927h3.106a6.971 6.971 0 0 0-1.233-3.014 8.277 8.277 0 0 0-2.421-2.284c-.975-.64-2.086-1.111-3.334-1.416a14.408 14.408 0 0 0-3.837-.502c-1.401 0-2.741.182-4.02.548-1.248.365-2.359.898-3.334 1.598a8.014 8.014 0 0 0-2.284 2.65c-.548 1.065-.822 2.283-.822 3.654 0 1.796.457 3.243 1.371 4.339.913 1.096 2.055 2.01 3.425 2.74a28.727 28.727 0 0 0 4.522 1.873 33.403 33.403 0 0 1 4.476 1.781c1.401.64 2.558 1.431 3.471 2.375.914.944 1.371 2.208 1.371 3.792 0 1.979-.731 3.425-2.193 4.339-1.431.913-3.349 1.37-5.755 1.37-1.918 0-3.456-.244-4.613-.73-1.157-.519-2.04-1.128-2.649-1.828-.609-.7-1.02-1.416-1.233-2.147-.213-.76-.335-1.4-.366-1.918h-3.106Z"/><path stroke="#000" stroke-width=".5" d="M.968.986v31.973h4.156V17.063h14.16v-2.1H5.124V3.498h16.489V.986H.968ZM26.617.986v19.64c0 1.249.122 2.634.366 4.157.243 1.492.822 2.892 1.735 4.202.914 1.279 2.269 2.36 4.065 3.243 1.797.852 4.248 1.279 7.354 1.279 1.949 0 3.67-.305 5.161-.914 1.523-.609 2.787-1.446 3.791-2.512a10.448 10.448 0 0 0 2.33-3.7c.518-1.43.776-2.953.776-4.567V.986h-2.01v19.32c0 .67-.015 1.355-.045 2.056-.03.67-.122 1.355-.274 2.055a8.91 8.91 0 0 1-.73 2.01c-.305.67-.762 1.34-1.371 2.01-1.096 1.187-2.33 1.994-3.7 2.42-1.37.427-2.801.64-4.293.64-1.28 0-2.421-.198-3.426-.594-.974-.396-1.903-.99-2.786-1.781-.7-.61-1.233-1.218-1.599-1.827a8.396 8.396 0 0 1-.822-1.782 7.676 7.676 0 0 1-.32-1.827 36.64 36.64 0 0 1-.045-1.827V.986h-4.157ZM73.148 32.959V3.498h12.24V.986H56.75v2.512h12.241v29.46h4.157ZM89.956.986v19.64c0 1.249.122 2.634.365 4.157.244 1.492.823 2.892 1.736 4.202.913 1.279 2.269 2.36 4.065 3.243 1.797.852 4.248 1.279 7.354 1.279 1.949 0 3.669-.305 5.161-.914 1.523-.609 2.786-1.446 3.791-2.512a10.46 10.46 0 0 0 2.33-3.7c.517-1.43.776-2.953.776-4.567V.986h-2.01v19.32c0 .67-.015 1.355-.045 2.056-.031.67-.122 1.355-.274 2.055a8.94 8.94 0 0 1-.731 2.01c-.305.67-.761 1.34-1.37 2.01-1.097 1.187-2.33 1.994-3.7 2.42-1.37.427-2.802.64-4.294.64-1.279 0-2.42-.198-3.425-.594-.975-.396-1.903-.99-2.786-1.781-.7-.61-1.234-1.218-1.6-1.827a8.396 8.396 0 0 1-.821-1.782 7.676 7.676 0 0 1-.32-1.827 36.64 36.64 0 0 1-.046-1.827V.986h-4.156ZM122.235.986v31.973h4.157V18.845h2.01c.852 0 1.553.076 2.101.228a4.152 4.152 0 0 1 1.553.777c.456.365.883.837 1.279 1.416.395.578.867 1.294 1.415 2.146l3.609 5.344c.457.7.898 1.34 1.324 1.919a9.833 9.833 0 0 0 1.462 1.507 6.854 6.854 0 0 0 1.736.96c.67.243 1.461.365 2.375.365.67 0 1.218-.03 1.644-.092.426-.06.853-.213 1.279-.456v-1.69l-.457.09h-.457c-.639 0-1.202-.09-1.69-.273a5.13 5.13 0 0 1-1.37-.777 9.924 9.924 0 0 1-1.233-1.279 32.739 32.739 0 0 1-1.233-1.735 162.839 162.839 0 0 1-2.969-4.43 60.485 60.485 0 0 0-1.69-2.604c-.396-.61-.731-1.05-1.005-1.325a3.005 3.005 0 0 0-.913-.685l-.457-.228v-.183c1.461-.091 2.71-.411 3.745-.96 1.066-.547 1.934-1.232 2.604-2.055a8.112 8.112 0 0 0 1.461-2.649 9.46 9.46 0 0 0 .457-2.832c0-.822-.167-1.72-.502-2.694-.305-.975-.853-1.873-1.645-2.695-.761-.853-1.812-1.553-3.151-2.101-1.34-.579-3.03-.868-5.07-.868h-10.369Zm4.157 2.01h4.613c1.157 0 2.192.167 3.106.502.944.335 1.751.807 2.421 1.416a5.458 5.458 0 0 1 1.507 2.101c.365.822.548 1.72.548 2.695 0 .822-.167 1.66-.502 2.512a6.978 6.978 0 0 1-1.416 2.284c-.64.67-1.431 1.218-2.375 1.644-.914.426-1.98.64-3.198.64h-4.704V2.995ZM153.559.986v31.973h4.156V.986h-4.156ZM164.435 24.874c.061 1.31.396 2.497 1.005 3.563a9.117 9.117 0 0 0 2.558 2.74c1.096.73 2.375 1.31 3.837 1.736 1.461.396 3.06.594 4.796.594 1.766 0 3.349-.214 4.75-.64 1.431-.426 2.649-1.035 3.654-1.827a8.178 8.178 0 0 0 2.329-2.877c.548-1.127.822-2.375.822-3.746 0-1.888-.472-3.425-1.415-4.613-.944-1.218-2.132-2.223-3.563-3.014a23.576 23.576 0 0 0-4.613-2.056 61.35 61.35 0 0 1-4.614-1.736c-1.4-.609-2.573-1.309-3.516-2.1-.944-.792-1.416-1.843-1.416-3.152 0-.731.152-1.416.456-2.056a4.863 4.863 0 0 1 1.416-1.644c.64-.487 1.416-.868 2.33-1.142.913-.304 1.964-.457 3.151-.457 1.98 0 3.654.427 5.025 1.28 1.4.822 2.222 2.13 2.466 3.927h3.106a6.971 6.971 0 0 0-1.233-3.014 8.277 8.277 0 0 0-2.421-2.284c-.975-.64-2.086-1.111-3.334-1.416a14.408 14.408 0 0 0-3.837-.502c-1.401 0-2.741.182-4.02.548-1.248.365-2.359.898-3.334 1.598a8.014 8.014 0 0 0-2.284 2.65c-.548 1.065-.822 2.283-.822 3.654 0 1.796.457 3.243 1.371 4.339.913 1.096 2.055 2.01 3.425 2.74a28.727 28.727 0 0 0 4.522 1.873 33.403 33.403 0 0 1 4.476 1.781c1.401.64 2.558 1.431 3.471 2.375.914.944 1.371 2.208 1.371 3.792 0 1.979-.731 3.425-2.193 4.339-1.431.913-3.349 1.37-5.755 1.37-1.918 0-3.456-.244-4.613-.73-1.157-.519-2.04-1.128-2.649-1.828-.609-.7-1.02-1.416-1.233-2.147-.213-.76-.335-1.4-.366-1.918h-3.106Z" mask="url(#a)"/></svg>